<?xml version="1.0" encoding="UTF-8"?>
<svg width="991px" height="501px" viewBox="0 0 991 501" version="1.1" xmlns="http://www.w3.org/2000/svg" xmlns:xlink="http://www.w3.org/1999/xlink">
    <!-- Generator: Sketch 55.2 (78181) - https://sketchapp.com -->
    <title>991 copy</title>
    <desc>Created with Sketch.</desc>
    <g id="991-copy" stroke="none" stroke-width="1" fill="none" fill-rule="evenodd" transform="translate(0.000000, 0.000000)">
        <g id="SVG" transform="translate(252.000000, 23.000000)">
            <g id="1680-Button" transform="translate(168.000000, 418.000000)">
                <rect id="Rectangle" fill="#FFE586" x="0" y="0" width="151" height="39" rx="1.836"></rect>
                <path d="M33.7952381,20.4376356 L35.9897636,20.4376356 C35.9897636,22.4194384 37.4118161,23.1941432 39.1674364,23.1941432 C41.0986188,23.1941432 41.8184232,22.2212581 41.8184232,21.2483731 C41.8184232,20.2574717 41.2917371,19.8611111 40.7826072,19.6629308 C39.904797,19.3206194 38.7636437,19.0864064 37.0431358,18.5999638 C34.9012789,18.005423 34.2692556,16.6722102 34.2692556,15.3389973 C34.2692556,12.7626537 36.5866745,11.5555556 38.8514248,11.5555556 C41.4672991,11.5555556 43.6618246,12.9788503 43.6618246,15.6632924 L41.4672991,15.6632924 C41.3619619,14.0057845 40.2734773,13.3932273 38.7636437,13.3932273 C37.7453839,13.3932273 36.4637811,13.7715715 36.4637811,15.0687515 C36.4637811,15.969571 37.060692,16.4740299 37.9560584,16.7262593 C38.1491766,16.7803085 40.9230568,17.5189805 41.5726363,17.7171608 C43.2229195,18.2216197 44.0129487,19.6629308 44.0129487,20.9961436 C44.0129487,23.878766 41.5199677,25.0318149 39.0269868,25.0318149 C36.1653256,25.0318149 33.8479067,23.6265365 33.7952381,20.4376356 Z M45.6456756,24.7255363 L45.6456756,11.8618342 L47.6470828,11.8618342 L47.6470828,16.6361774 L47.6821952,16.6361774 C48.1737689,15.7894071 49.2095849,15.1588335 50.4034068,15.1588335 C52.3697016,15.1588335 53.6161921,16.2398168 53.6161921,18.329718 L53.6161921,24.7255363 L51.6147849,24.7255363 L51.6147849,18.8702097 C51.5796724,17.4108821 51.0178739,16.7803085 49.8416083,16.7803085 C48.5073368,16.7803085 47.6470828,17.8612919 47.6470828,19.2305375 L47.6470828,24.7255363 L45.6456756,24.7255363 Z M59.8837568,23.3562907 C61.6744896,23.3562907 62.4645187,21.6807664 62.4645187,20.0592914 C62.4645187,18.4558327 61.6744896,16.7803085 59.8837568,16.7803085 C58.093024,16.7803085 57.3029949,18.4558327 57.3029949,20.0592914 C57.3029949,21.6807664 58.093024,23.3562907 59.8837568,23.3562907 Z M59.8837568,24.9777657 C56.969427,24.9777657 55.3015876,22.9238973 55.3015876,20.0592914 C55.3015876,17.2127019 56.969427,15.1588335 59.8837568,15.1588335 C62.7980866,15.1588335 64.465926,17.2127019 64.465926,20.0592914 C64.465926,22.9238973 62.7980866,24.9777657 59.8837568,24.9777657 Z M73.173803,20.0773078 C73.173803,18.3837672 72.313549,16.7803085 70.6632659,16.7803085 C68.9778703,16.7803085 68.1176163,18.0955049 68.1176163,20.0773078 C68.1176163,21.9510123 69.0480951,23.3562907 70.6632659,23.3562907 C72.4891111,23.3562907 73.173803,21.6987828 73.173803,20.0773078 Z M66.1864339,28.1666667 L66.1864339,15.4110629 L68.0825039,15.4110629 L68.0825039,16.6722102 L68.1176163,16.6722102 C68.6794149,15.6092432 69.7678995,15.1588335 70.9266089,15.1588335 C73.7882701,15.1588335 75.1752102,17.3928658 75.1752102,20.1133406 C75.1752102,22.6176187 73.946276,24.9777657 71.2601768,24.9777657 C70.1014674,24.9777657 68.8549769,24.5453724 68.2229536,23.5184382 L68.1878412,23.5184382 L68.1878412,28.1666667 L66.1864339,28.1666667 Z M81.9343487,24.7255363 L81.9343487,11.8618342 L84.2517675,11.8618342 L89.97509,21.338455 L90.0102024,21.338455 L90.0102024,11.8618342 L92.0993906,11.8618342 L92.0993906,24.7255363 L89.7819717,24.7255363 L84.0762055,15.2669318 L84.0235369,15.2669318 L84.0235369,24.7255363 L81.9343487,24.7255363 Z M98.5776298,23.3562907 C100.368363,23.3562907 101.158392,21.6807664 101.158392,20.0592914 C101.158392,18.4558327 100.368363,16.7803085 98.5776298,16.7803085 C96.786897,16.7803085 95.9968678,18.4558327 95.9968678,20.0592914 C95.9968678,21.6807664 96.786897,23.3562907 98.5776298,23.3562907 Z M98.5776298,24.9777657 C95.6633,24.9777657 93.9954606,22.9238973 93.9954606,20.0592914 C93.9954606,17.2127019 95.6633,15.1588335 98.5776298,15.1588335 C101.49196,15.1588335 103.159799,17.2127019 103.159799,20.0592914 C103.159799,22.9238973 101.49196,24.9777657 98.5776298,24.9777657 Z M106.811489,24.7255363 L104.002497,15.4110629 L106.126797,15.4110629 L107.899974,22.3653893 L107.935086,22.3653893 L109.638038,15.4110629 L111.657002,15.4110629 L113.289728,22.3653893 L113.324841,22.3653893 L115.168242,15.4110629 L117.204762,15.4110629 L114.360657,24.7255363 L112.306581,24.7255363 L110.621186,17.8072427 L110.586073,17.8072427 L108.918234,24.7255363 L106.811489,24.7255363 Z" id="ShopNow" fill="#000000" fill-rule="nonzero"></path>
            </g>
            <g id="title" fill-rule="nonzero">
                <path d="M29.0904906,31.7606 C29.0904906,24.3455 25.6947906,16.5146 17.3787906,16.5146 C7.74609065,16.5146 4.83549065,23.6525 4.83549065,31.7606 C4.83549065,39.1757 8.09259065,47.0066 17.3787906,47.0066 C25.6947906,47.0066 29.0904906,39.1757 29.0904906,31.7606 Z M0.46959065,62.8763 L0.46959065,13.8812 L4.48899065,13.8812 L4.48899065,20.6726 L4.62759065,20.6726 C6.63729065,15.8216 11.6268906,12.8417 17.3787906,12.8417 C28.2588906,12.8417 33.4563906,21.6428 33.4563906,31.7606 C33.4563906,41.8784 28.2588906,50.6795 17.3787906,50.6795 C12.0426906,50.6795 6.84519065,47.9768 4.97409065,42.8486 L4.83549065,42.8486 L4.83549065,62.8763 L0.46959065,62.8763 Z M63.1167906,35.78 L63.1167906,30.0974 L62.9781906,30.0974 C62.4237906,31.1369 60.4833906,31.4834 59.3052906,31.6913 C51.8901906,33.008 42.6732906,32.9387 42.6732906,39.938 C42.6732906,44.3039 46.5540906,47.0066 50.6427906,47.0066 C57.2955906,47.0066 63.1860906,42.7793 63.1167906,35.78 Z M44.1978906,24.8306 L39.8319906,24.8306 C40.2477906,16.4453 46.1382906,12.8417 54.3156906,12.8417 C60.6219906,12.8417 67.4826906,14.7821 67.4826906,24.3455 L67.4826906,43.3337 C67.4826906,44.9969 68.3142906,45.9671 70.0467906,45.9671 C70.5318906,45.9671 71.0862906,45.8285 71.4327906,45.6899 L71.4327906,49.3628 C70.4625906,49.5707 69.7695906,49.64 68.5914906,49.64 C64.1562906,49.64 63.4632906,47.1452 63.4632906,43.403 L63.3246906,43.403 C60.2754906,48.0461 57.1569906,50.6795 50.2962906,50.6795 C43.7127906,50.6795 38.3073906,47.4224 38.3073906,40.2152 C38.3073906,30.1667 48.0786906,29.8202 57.5034906,28.7114 C61.1070906,28.2956 63.1167906,27.8105 63.1167906,23.8604 C63.1167906,17.9699 58.8894906,16.5146 53.7612906,16.5146 C48.3558906,16.5146 44.3364906,19.0094 44.1978906,24.8306 Z M83.1444906,3.1397 L83.1444906,13.8812 L90.4209906,13.8812 L90.4209906,17.5541 L83.1444906,17.5541 L83.1444906,41.6705 C83.1444906,44.5118 83.5602906,46.175 86.6787906,46.3829 C87.9261906,46.3829 89.1735906,46.3136 90.4209906,46.175 L90.4209906,49.9172 C89.1042906,49.9172 87.8568906,50.0558 86.5401906,50.0558 C80.7189906,50.0558 78.7092906,48.1154 78.7785906,42.017 L78.7785906,17.5541 L72.5415906,17.5541 L72.5415906,13.8812 L78.7785906,13.8812 L78.7785906,3.1397 L83.1444906,3.1397 Z M96.7965906,49.64 L96.7965906,13.8812 L101.162491,13.8812 L101.162491,49.64 L96.7965906,49.64 Z M96.7965906,7.1591 L96.7965906,0.1598 L101.162491,0.1598 L101.162491,7.1591 L96.7965906,7.1591 Z M124.655191,12.8417 C135.604591,12.8417 141.564391,21.5042 141.564391,31.7606 C141.564391,42.017 135.604591,50.6795 124.655191,50.6795 C113.705791,50.6795 107.745991,42.017 107.745991,31.7606 C107.745991,21.5042 113.705791,12.8417 124.655191,12.8417 Z M124.655191,16.5146 C116.269891,16.5146 112.111891,24.1376 112.111891,31.7606 C112.111891,39.3836 116.269891,47.0066 124.655191,47.0066 C133.040491,47.0066 137.198491,39.3836 137.198491,31.7606 C137.198491,24.1376 133.040491,16.5146 124.655191,16.5146 Z" id="patio" fill="#FFFFFF"></path>
                <path d="M166.915493,38.2244141 C167.118522,39.9388758 167.55841,41.1570276 168.235171,41.8789063 C169.430782,43.1647525 171.641502,43.807666 174.867397,43.807666 C176.762329,43.807666 178.2681,43.5256864 179.384756,42.9617188 C180.501412,42.3977511 181.059731,41.5518123 181.059731,40.423877 C181.059731,39.341059 180.608564,38.5176786 179.706216,37.9537109 C178.803868,37.3897433 175.45395,36.4197334 169.656362,35.0436523 C165.483002,34.0059518 162.539135,32.7088457 160.824673,31.1522949 C159.110211,29.6183029 158.252993,27.4075828 158.252993,24.5200684 C158.252993,21.1137037 159.589576,18.1867554 162.262783,15.7391357 C164.93599,13.2915161 168.697598,12.0677246 173.54772,12.0677246 C178.149696,12.0677246 181.900025,12.9869781 184.798818,14.8255127 C187.697612,16.6640473 189.361292,19.8391376 189.789907,24.3508789 L180.146108,24.3508789 C180.010756,23.11015 179.661101,22.128861 179.097134,21.4069824 C178.036875,20.0985774 176.232205,19.4443848 173.683071,19.4443848 C171.585112,19.4443848 170.09062,19.7714811 169.199551,20.4256836 C168.308482,21.0798861 167.862954,21.8468706 167.862954,22.7266602 C167.862954,23.8320368 168.33668,24.6328588 169.284146,25.1291504 C170.231611,25.6480006 173.581529,26.5390562 179.333999,27.8023438 C183.168979,28.704692 186.045171,30.0694733 187.962661,31.8967285 C189.857592,33.7465425 190.805044,36.0587752 190.805044,38.8334961 C190.805044,42.4880066 189.445902,45.4713507 186.727578,47.7836182 C184.009254,50.0958856 179.807758,51.252002 174.122964,51.252002 C168.325376,51.252002 164.044926,50.0282105 161.281484,47.5805908 C158.518043,45.1329712 157.136343,42.0142768 157.136343,38.2244141 L166.915493,38.2244141 Z M207.5548,13.1166992 L207.5548,35.3481934 C207.5548,37.4461531 207.802942,39.0252388 208.299233,40.085498 C209.179023,41.9578707 210.904738,42.894043 213.476431,42.894043 C216.770002,42.894043 219.025839,41.5630992 220.244009,38.9011719 C220.875653,37.4574147 221.19147,35.5512325 221.19147,33.1825684 L221.19147,13.1166992 L230.97062,13.1166992 L230.97062,50 L221.597524,50 L221.597524,44.7889648 C221.50729,44.9017584 221.281706,45.2401339 220.920767,45.8041016 C220.559827,46.3680692 220.131218,46.8643533 219.634927,47.2929688 C218.123493,48.6464911 216.662839,49.5713842 215.25292,50.0676758 C213.843001,50.5639673 212.1906,50.8121094 210.295669,50.8121094 C204.836462,50.8121094 201.159448,48.8495313 199.264517,44.9243164 C198.204257,42.7586806 197.674136,39.5666715 197.674136,35.3481934 L197.674136,13.1166992 L207.5548,13.1166992 Z M265.688296,31.5583496 C265.688296,28.7159526 265.039743,26.2006945 263.742617,24.0125 C262.445492,21.8243055 260.341924,20.7302246 257.431851,20.7302246 C253.935251,20.7302246 251.532785,22.3882647 250.22438,25.7043945 C249.547619,27.4639736 249.209243,29.6972521 249.209243,32.4042969 C249.209243,36.6904511 250.348441,39.7019933 252.62687,41.4390137 C253.980393,42.4541555 255.582037,42.9617188 257.431851,42.9617188 C260.116337,42.9617188 262.163509,41.9240338 263.573428,39.8486328 C264.983347,37.7732318 265.688296,35.0098317 265.688296,31.5583496 Z M260.206558,12.3045898 C264.515271,12.3045898 268.164087,13.8949548 271.153115,17.0757324 C274.142144,20.25651 275.636636,24.9260923 275.636636,31.0846191 C275.636636,37.5815266 274.175981,42.5330884 271.254629,45.9394531 C268.333276,49.3458178 264.571669,51.0489746 259.969692,51.0489746 C257.037061,51.0489746 254.600757,50.3158276 252.660708,48.8495117 C251.600449,48.0373983 250.562764,46.853084 249.547622,45.2965332 L249.547622,64.5164551 L240.005337,64.5164551 L240.005337,13.1166992 L249.243081,13.1166992 L249.243081,18.5645996 C250.280782,16.9629314 251.386142,15.6996628 252.559194,14.7747559 C254.702271,13.1279703 257.251367,12.3045898 260.206558,12.3045898 Z M297.157534,20.0873047 C294.924222,20.0873047 293.192867,20.7866141 291.963418,22.1852539 C290.733968,23.5838937 289.961344,25.4787966 289.645522,27.8700195 L304.635708,27.8700195 C304.477797,25.3208857 303.705173,23.3865056 302.317813,22.0668213 C300.930452,20.747137 299.210376,20.0873047 297.157534,20.0873047 Z M297.157534,12.1354004 C300.225518,12.1354004 302.988918,12.7106388 305.447817,13.8611328 C307.906716,15.0116268 309.93697,16.8275755 311.538638,19.3090332 C312.982395,21.4972277 313.918567,24.0350442 314.347183,26.9225586 C314.595328,28.6144616 314.696841,31.0507653 314.651724,34.231543 L289.408657,34.231543 C289.544009,37.9311708 290.705765,40.5253832 292.89396,42.0142578 C294.224924,42.9391648 295.826568,43.4016113 297.69894,43.4016113 C299.684107,43.4016113 301.29703,42.8376521 302.537759,41.7097168 C303.21452,41.1006317 303.812317,40.2546929 304.331167,39.171875 L314.177993,39.171875 C313.929847,41.3600695 312.79065,43.5820688 310.760366,45.8379395 C307.602147,49.4247738 303.180707,51.2181641 297.495913,51.2181641 C292.803702,51.2181641 288.664242,49.7067534 285.077407,46.6838867 C281.490573,43.66102 279.697183,38.7432958 279.697183,31.9305664 C279.697183,25.5464525 281.315746,20.6512866 284.55292,17.2449219 C287.790094,13.8385572 291.99159,12.1354004 297.157534,12.1354004 Z M341.18063,12.2369141 C341.3611,12.2369141 341.513369,12.2425537 341.637441,12.253833 C341.761514,12.2651124 342.037854,12.2820311 342.46647,12.3045898 L342.46647,22.1852539 C341.857385,22.1175778 341.315984,22.0724611 340.842251,22.0499023 C340.368518,22.0273436 339.985026,22.0160645 339.691763,22.0160645 C335.811665,22.0160645 333.206174,23.2793331 331.87521,25.8059082 C331.130773,27.2271067 330.75856,29.4152684 330.75856,32.370459 L330.75856,50 L321.047085,50 L321.047085,13.1166992 L330.250991,13.1166992 L330.250991,19.5458984 C331.739866,17.0869994 333.036972,15.406401 334.142349,14.5040527 C335.947045,12.9926194 338.293115,12.2369141 341.18063,12.2369141 Z" id="super" fill="#FFE586"></path>
                <path d="M368.973535,38.2244141 C369.176564,39.9388758 369.616452,41.1570276 370.293213,41.8789062 C371.488824,43.1647525 373.699544,43.807666 376.925439,43.807666 C378.820371,43.807666 380.326142,43.5256864 381.442798,42.9617187 C382.559454,42.3977511 383.117773,41.5518123 383.117773,40.423877 C383.117773,39.341059 382.666606,38.5176786 381.764258,37.9537109 C380.86191,37.3897433 377.511992,36.4197334 371.714404,35.0436523 C367.541044,34.0059518 364.597177,32.7088457 362.882715,31.1522949 C361.168253,29.6183029 360.311035,27.4075828 360.311035,24.5200684 C360.311035,21.1137037 361.647618,18.1867554 364.320825,15.7391357 C366.994032,13.2915161 370.75564,12.0677246 375.605762,12.0677246 C380.207738,12.0677246 383.958067,12.9869781 386.85686,14.8255127 C389.755654,16.6640473 391.419334,19.8391376 391.847949,24.3508789 L382.20415,24.3508789 C382.068798,23.11015 381.719143,22.128861 381.155176,21.4069824 C380.094917,20.0985774 378.290247,19.4443848 375.741113,19.4443848 C373.643154,19.4443848 372.148662,19.7714811 371.257593,20.4256836 C370.366524,21.0798861 369.920996,21.8468706 369.920996,22.7266602 C369.920996,23.8320368 370.394722,24.6328588 371.342187,25.1291504 C372.289653,25.6480006 375.639571,26.5390562 381.392041,27.8023437 C385.227021,28.704692 388.103213,30.0694733 390.020703,31.8967285 C391.915634,33.7465425 392.863086,36.0587752 392.863086,38.8334961 C392.863086,42.4880066 391.503944,45.4713507 388.78562,47.7836182 C386.067296,50.0958856 381.8658,51.252002 376.181006,51.252002 C370.383418,51.252002 366.102968,50.0282105 363.339526,47.5805908 C360.576085,45.1329712 359.194385,42.0142768 359.194385,38.2244141 L368.973535,38.2244141 Z M420.339453,32.065918 C419.730368,32.449416 419.115653,32.7595935 418.495288,32.99646 C417.874924,33.2333264 417.023345,33.4532705 415.940527,33.6562988 L413.774902,34.0623535 C411.744619,34.4232928 410.289604,34.863181 409.409814,35.3820312 C407.92094,36.2618208 407.176514,37.6266021 407.176514,39.476416 C407.176514,41.1232016 407.633321,42.3131555 408.546948,43.0463135 C409.460576,43.7794714 410.571575,44.1460449 411.87998,44.1460449 C413.955381,44.1460449 415.867203,43.536969 417.615503,42.3187988 C419.363803,41.1006287 420.271777,38.8786294 420.339453,35.6527344 L420.339453,32.065918 Z M414.485498,27.5654785 C416.267636,27.3398915 417.542184,27.0579118 418.30918,26.7195312 C419.685261,26.1330049 420.373291,25.219391 420.373291,23.9786621 C420.373291,22.4672288 419.848809,21.4239042 418.799829,20.8486572 C417.750849,20.2734102 416.211241,19.985791 414.180957,19.985791 C411.902528,19.985791 410.289604,20.5497502 409.342139,21.6776855 C408.665377,22.5123577 408.21421,23.6402761 407.988623,25.0614746 L398.683203,25.0614746 C398.886231,21.8355796 399.788566,19.1849713 401.390234,17.1095703 C403.939368,13.8611166 408.315692,12.2369141 414.519336,12.2369141 C418.557344,12.2369141 422.144125,13.0377361 425.279785,14.6394043 C428.415445,16.2410725 429.983252,19.2638938 429.983252,23.707959 L429.983252,40.6269043 C429.983252,41.799957 430.00581,43.2211342 430.050928,44.8904785 C430.118604,46.1537661 430.31035,47.0109841 430.626172,47.4621582 C430.941994,47.9133323 431.415719,48.2855454 432.047363,48.5788086 L432.047363,50 L421.557617,50 C421.264354,49.2555627 421.061329,48.5562533 420.948535,47.9020508 C420.835742,47.2478483 420.745508,46.5034221 420.677832,45.66875 C419.346868,47.1125072 417.812899,48.3419383 416.075879,49.3570801 C414.000478,50.5526915 411.654408,51.1504883 409.037598,51.1504883 C405.698909,51.1504883 402.941149,50.1973972 400.764233,48.2911865 C398.587318,46.3849758 397.498877,43.6836112 397.498877,40.1870117 C397.498877,35.6527117 399.24715,32.3704691 402.74375,30.3401855 C404.66124,29.2348089 407.481036,28.445266 411.203223,27.9715332 L414.485498,27.5654785 Z M448.391064,50 L438.747266,50 L438.747266,0.122949219 L448.391064,0.122949219 L448.391064,50 Z M472.348291,20.0873047 C470.114979,20.0873047 468.383624,20.7866141 467.154175,22.1852539 C465.924725,23.5838937 465.152101,25.4787966 464.836279,27.8700195 L479.826465,27.8700195 C479.668554,25.3208857 478.89593,23.3865056 477.508569,22.0668213 C476.121209,20.747137 474.401133,20.0873047 472.348291,20.0873047 Z M472.348291,12.1354004 C475.416275,12.1354004 478.179675,12.7106388 480.638574,13.8611328 C483.097473,15.0116268 485.127726,16.8275755 486.729395,19.3090332 C488.173152,21.4972277 489.109324,24.0350442 489.537939,26.9225586 C489.786085,28.6144616 489.887598,31.0507653 489.84248,34.231543 L464.599414,34.231543 C464.734766,37.9311708 465.896522,40.5253832 468.084717,42.0142578 C469.41568,42.9391648 471.017325,43.4016113 472.889697,43.4016113 C474.874863,43.4016113 476.487787,42.8376521 477.728516,41.7097168 C478.405277,41.1006317 479.003074,40.2546929 479.521924,39.171875 L489.36875,39.171875 C489.120604,41.3600695 487.981407,43.5820688 485.951123,45.8379395 C482.792904,49.4247738 478.371464,51.2181641 472.68667,51.2181641 C467.994459,51.2181641 463.854998,49.7067534 460.268164,46.6838867 C456.68133,43.66102 454.887939,38.7432958 454.887939,31.9305664 C454.887939,25.5464525 456.506502,20.6512866 459.743677,17.2449219 C462.980851,13.8385572 467.182347,12.1354004 472.348291,12.1354004 Z" id="sale" fill="#FFE586"></path>
                <path d="M46.7156452,104 L46.7156452,85.436 L50.7976452,85.436 L50.7976452,92.56 L58.3116452,92.56 L58.3116452,85.436 L62.3936452,85.436 L62.3936452,104 L58.3116452,104 L58.3116452,95.992 L50.7976452,95.992 L50.7976452,104 L46.7156452,104 Z M78.2332164,90.558 L78.2332164,104 L74.7232164,104 L74.7232164,102.128 L74.6452164,102.128 C73.7092164,103.636 72.0972164,104.364 70.5372164,104.364 C66.6112164,104.364 65.6232164,102.154 65.6232164,98.826 L65.6232164,90.558 L69.3152164,90.558 L69.3152164,98.15 C69.3152164,100.36 69.9652164,101.452 71.6812164,101.452 C73.6832164,101.452 74.5412164,100.334 74.5412164,97.604 L74.5412164,90.558 L78.2332164,90.558 Z M93.9947877,90.558 L93.9947877,103.142 C93.9947877,105.352 93.2147877,109.096 87.0267877,109.096 C84.3747877,109.096 81.2807877,107.848 81.0987877,104.78 L84.7647877,104.78 C85.1027877,106.158 86.2207877,106.626 87.5207877,106.626 C89.5747877,106.626 90.5107877,105.222 90.4847877,103.298 L90.4847877,101.53 L90.4327877,101.53 C89.6267877,102.934 88.0147877,103.61 86.4027877,103.61 C82.3727877,103.61 80.6567877,100.542 80.6567877,96.85 C80.6567877,93.366 82.6587877,90.194 86.4287877,90.194 C88.1967877,90.194 89.5487877,90.792 90.4327877,92.352 L90.4847877,92.352 L90.4847877,90.558 L93.9947877,90.558 Z M87.3387877,100.828 C89.4447877,100.828 90.4847877,99.034 90.4847877,97.11 C90.4847877,94.926 89.7307877,92.976 87.3387877,92.976 C85.2587877,92.976 84.3487877,94.796 84.3487877,96.798 C84.3487877,98.722 85.0767877,100.828 87.3387877,100.828 Z M109.730359,98.176 L100.032359,98.176 C100.136359,100.516 101.280359,101.582 103.334359,101.582 C104.816359,101.582 106.012359,100.672 106.246359,99.84 L109.496359,99.84 C108.456359,103.012 106.246359,104.364 103.204359,104.364 C98.966359,104.364 96.340359,101.452 96.340359,97.292 C96.340359,93.262 99.122359,90.194 103.204359,90.194 C107.780359,90.194 109.990359,94.042 109.730359,98.176 Z M100.032359,95.836 L106.038359,95.836 C105.700359,93.964 104.894359,92.976 103.100359,92.976 C100.760359,92.976 100.084359,94.796 100.032359,95.836 Z M118.555502,99.632 L122.065502,99.632 C122.091502,101.244 123.443502,101.894 124.899502,101.894 C125.965502,101.894 127.317502,101.478 127.317502,100.178 C127.317502,99.06 125.783502,98.67 123.131502,98.098 C120.999502,97.63 118.867502,96.876 118.867502,94.51 C118.867502,91.078 121.831502,90.194 124.717502,90.194 C127.655502,90.194 130.359502,91.182 130.645502,94.484 L127.135502,94.484 C127.031502,93.054 125.939502,92.664 124.613502,92.664 C123.781502,92.664 122.559502,92.82 122.559502,93.912 C122.559502,95.238 124.639502,95.42 126.745502,95.914 C128.903502,96.408 131.009502,97.188 131.009502,99.684 C131.009502,103.22 127.941502,104.364 124.873502,104.364 C121.753502,104.364 118.711502,103.194 118.555502,99.632 Z M141.571073,98.8 L141.571073,97.422 C140.947073,97.968 139.647073,97.994 138.503073,98.202 C137.359073,98.436 136.319073,98.826 136.319073,100.178 C136.319073,101.556 137.385073,101.894 138.581073,101.894 C141.467073,101.894 141.571073,99.606 141.571073,98.8 Z M136.735073,94.692 L133.043073,94.692 C133.251073,91.234 136.345073,90.194 139.361073,90.194 C142.039073,90.194 145.263073,90.792 145.263073,94.016 L145.263073,101.01 C145.263073,102.232 145.393073,103.454 145.731073,104 L141.987073,104 C141.857073,103.584 141.753073,103.142 141.727073,102.7 C140.557073,103.922 138.841073,104.364 137.203073,104.364 C134.655073,104.364 132.627073,103.09 132.627073,100.334 C132.627073,97.292 134.915073,96.564 137.203073,96.252 C139.465073,95.914 141.571073,95.992 141.571073,94.484 C141.571073,92.898 140.479073,92.664 139.179073,92.664 C137.775073,92.664 136.865073,93.236 136.735073,94.692 Z M160.140644,90.558 L155.590644,104 L151.482644,104 L146.880644,90.558 L150.754644,90.558 L153.588644,99.736 L153.640644,99.736 L156.474644,90.558 L160.140644,90.558 Z M161.810215,104 L161.810215,90.558 L165.502215,90.558 L165.502215,104 L161.810215,104 Z M165.502215,85.436 L165.502215,88.478 L161.810215,88.478 L161.810215,85.436 L165.502215,85.436 Z M168.445787,104 L168.445787,90.558 L171.955787,90.558 L171.955787,92.43 L172.033787,92.43 C172.969787,90.922 174.581787,90.194 176.141787,90.194 C180.067787,90.194 181.055787,92.404 181.055787,95.732 L181.055787,104 L177.363787,104 L177.363787,96.408 C177.363787,94.198 176.713787,93.106 174.997787,93.106 C172.995787,93.106 172.137787,94.224 172.137787,96.954 L172.137787,104 L168.445787,104 Z M196.817358,90.558 L196.817358,103.142 C196.817358,105.352 196.037358,109.096 189.849358,109.096 C187.197358,109.096 184.103358,107.848 183.921358,104.78 L187.587358,104.78 C187.925358,106.158 189.043358,106.626 190.343358,106.626 C192.397358,106.626 193.333358,105.222 193.307358,103.298 L193.307358,101.53 L193.255358,101.53 C192.449358,102.934 190.837358,103.61 189.225358,103.61 C185.195358,103.61 183.479358,100.542 183.479358,96.85 C183.479358,93.366 185.481358,90.194 189.251358,90.194 C191.019358,90.194 192.371358,90.792 193.255358,92.352 L193.307358,92.352 L193.307358,90.558 L196.817358,90.558 Z M190.161358,100.828 C192.267358,100.828 193.307358,99.034 193.307358,97.11 C193.307358,94.926 192.553358,92.976 190.161358,92.976 C188.081358,92.976 187.171358,94.796 187.171358,96.798 C187.171358,98.722 187.899358,100.828 190.161358,100.828 Z M199.162929,99.632 L202.672929,99.632 C202.698929,101.244 204.050929,101.894 205.506929,101.894 C206.572929,101.894 207.924929,101.478 207.924929,100.178 C207.924929,99.06 206.390929,98.67 203.738929,98.098 C201.606929,97.63 199.474929,96.876 199.474929,94.51 C199.474929,91.078 202.438929,90.194 205.324929,90.194 C208.262929,90.194 210.966929,91.182 211.252929,94.484 L207.742929,94.484 C207.638929,93.054 206.546929,92.664 205.220929,92.664 C204.388929,92.664 203.166929,92.82 203.166929,93.912 C203.166929,95.238 205.246929,95.42 207.352929,95.914 C209.510929,96.408 211.616929,97.188 211.616929,99.684 C211.616929,103.22 208.548929,104.364 205.480929,104.364 C202.360929,104.364 199.318929,103.194 199.162929,99.632 Z M220.650072,97.292 C220.650072,93.002 223.380072,90.194 227.592072,90.194 C231.830072,90.194 234.560072,93.002 234.560072,97.292 C234.560072,101.556 231.830072,104.364 227.592072,104.364 C223.380072,104.364 220.650072,101.556 220.650072,97.292 Z M224.342072,97.292 C224.342072,99.424 225.096072,101.582 227.592072,101.582 C230.114072,101.582 230.868072,99.424 230.868072,97.292 C230.868072,95.134 230.114072,92.976 227.592072,92.976 C225.096072,92.976 224.342072,95.134 224.342072,97.292 Z M236.983643,104 L236.983643,90.558 L240.493643,90.558 L240.493643,92.43 L240.571643,92.43 C241.507643,90.922 243.119643,90.194 244.679643,90.194 C248.605643,90.194 249.593643,92.404 249.593643,95.732 L249.593643,104 L245.901643,104 L245.901643,96.408 C245.901643,94.198 245.251643,93.106 243.535643,93.106 C241.533643,93.106 240.675643,94.224 240.675643,96.954 L240.675643,104 L236.983643,104 Z M259.276786,97.292 C259.276786,93.002 262.006786,90.194 266.218786,90.194 C270.456786,90.194 273.186786,93.002 273.186786,97.292 C273.186786,101.556 270.456786,104.364 266.218786,104.364 C262.006786,104.364 259.276786,101.556 259.276786,97.292 Z M262.968786,97.292 C262.968786,99.424 263.722786,101.582 266.218786,101.582 C268.740786,101.582 269.494786,99.424 269.494786,97.292 C269.494786,95.134 268.740786,92.976 266.218786,92.976 C263.722786,92.976 262.968786,95.134 262.968786,97.292 Z M288.220357,90.558 L288.220357,104 L284.710357,104 L284.710357,102.128 L284.632357,102.128 C283.696357,103.636 282.084357,104.364 280.524357,104.364 C276.598357,104.364 275.610357,102.154 275.610357,98.826 L275.610357,90.558 L279.302357,90.558 L279.302357,98.15 C279.302357,100.36 279.952357,101.452 281.668357,101.452 C283.670357,101.452 284.528357,100.334 284.528357,97.604 L284.528357,90.558 L288.220357,90.558 Z M295.739928,86.528 L295.739928,90.558 L298.443928,90.558 L298.443928,93.028 L295.739928,93.028 L295.739928,99.684 C295.739928,100.932 296.051928,101.244 297.299928,101.244 C297.689928,101.244 298.053928,101.218 298.443928,101.14 L298.443928,104.026 C297.819928,104.13 297.013928,104.156 296.285928,104.156 C294.023928,104.156 292.047928,103.636 292.047928,100.958 L292.047928,93.028 L289.811928,93.028 L289.811928,90.558 L292.047928,90.558 L292.047928,86.528 L295.739928,86.528 Z M309.837499,104 L309.837499,102.284 L309.785499,102.284 C308.927499,103.74 307.419499,104.364 305.703499,104.364 C301.647499,104.364 299.671499,100.88 299.671499,97.162 C299.671499,93.548 301.673499,90.194 305.625499,90.194 C307.211499,90.194 308.771499,90.87 309.603499,92.196 L309.655499,92.196 L309.655499,85.436 L313.347499,85.436 L313.347499,104 L309.837499,104 Z M309.785499,97.24 C309.785499,95.056 309.005499,92.976 306.613499,92.976 C304.195499,92.976 303.363499,95.056 303.363499,97.266 C303.363499,99.372 304.325499,101.582 306.613499,101.582 C309.057499,101.582 309.785499,99.45 309.785499,97.24 Z M315.745071,97.292 C315.745071,93.002 318.475071,90.194 322.687071,90.194 C326.925071,90.194 329.655071,93.002 329.655071,97.292 C329.655071,101.556 326.925071,104.364 322.687071,104.364 C318.475071,104.364 315.745071,101.556 315.745071,97.292 Z M319.437071,97.292 C319.437071,99.424 320.191071,101.582 322.687071,101.582 C325.209071,101.582 325.963071,99.424 325.963071,97.292 C325.963071,95.134 325.209071,92.976 322.687071,92.976 C320.191071,92.976 319.437071,95.134 319.437071,97.292 Z M331.662642,97.292 C331.662642,93.002 334.392642,90.194 338.604642,90.194 C342.842642,90.194 345.572642,93.002 345.572642,97.292 C345.572642,101.556 342.842642,104.364 338.604642,104.364 C334.392642,104.364 331.662642,101.556 331.662642,97.292 Z M335.354642,97.292 C335.354642,99.424 336.108642,101.582 338.604642,101.582 C341.126642,101.582 341.880642,99.424 341.880642,97.292 C341.880642,95.134 341.126642,92.976 338.604642,92.976 C336.108642,92.976 335.354642,95.134 335.354642,97.292 Z M347.996213,104 L347.996213,90.558 L351.506213,90.558 L351.506213,93.054 L351.558213,93.054 C352.234213,91.364 354.054213,90.194 355.848213,90.194 C356.108213,90.194 356.420213,90.246 356.654213,90.324 L356.654213,93.756 C356.316213,93.678 355.770213,93.626 355.328213,93.626 C352.624213,93.626 351.688213,95.576 351.688213,97.942 L351.688213,104 L347.996213,104 Z M364.751356,99.632 L368.261356,99.632 C368.287356,101.244 369.639356,101.894 371.095356,101.894 C372.161356,101.894 373.513356,101.478 373.513356,100.178 C373.513356,99.06 371.979356,98.67 369.327356,98.098 C367.195356,97.63 365.063356,96.876 365.063356,94.51 C365.063356,91.078 368.027356,90.194 370.913356,90.194 C373.851356,90.194 376.555356,91.182 376.841356,94.484 L373.331356,94.484 C373.227356,93.054 372.135356,92.664 370.809356,92.664 C369.977356,92.664 368.755356,92.82 368.755356,93.912 C368.755356,95.238 370.835356,95.42 372.941356,95.914 C375.099356,96.408 377.205356,97.188 377.205356,99.684 C377.205356,103.22 374.137356,104.364 371.069356,104.364 C367.949356,104.364 364.907356,103.194 364.751356,99.632 Z M384.074927,86.528 L384.074927,90.558 L386.778927,90.558 L386.778927,93.028 L384.074927,93.028 L384.074927,99.684 C384.074927,100.932 384.386927,101.244 385.634927,101.244 C386.024927,101.244 386.388927,101.218 386.778927,101.14 L386.778927,104.026 C386.154927,104.13 385.348927,104.156 384.620927,104.156 C382.358927,104.156 380.382927,103.636 380.382927,100.958 L380.382927,93.028 L378.146927,93.028 L378.146927,90.558 L380.382927,90.558 L380.382927,86.528 L384.074927,86.528 Z M401.318498,98.176 L391.620498,98.176 C391.724498,100.516 392.868498,101.582 394.922498,101.582 C396.404498,101.582 397.600498,100.672 397.834498,99.84 L401.084498,99.84 C400.044498,103.012 397.834498,104.364 394.792498,104.364 C390.554498,104.364 387.928498,101.452 387.928498,97.292 C387.928498,93.262 390.710498,90.194 394.792498,90.194 C399.368498,90.194 401.578498,94.042 401.318498,98.176 Z M391.620498,95.836 L397.626498,95.836 C397.288498,93.964 396.482498,92.976 394.688498,92.976 C392.348498,92.976 391.672498,94.796 391.620498,95.836 Z M411.90607,98.8 L411.90607,97.422 C411.28207,97.968 409.98207,97.994 408.83807,98.202 C407.69407,98.436 406.65407,98.826 406.65407,100.178 C406.65407,101.556 407.72007,101.894 408.91607,101.894 C411.80207,101.894 411.90607,99.606 411.90607,98.8 Z M407.07007,94.692 L403.37807,94.692 C403.58607,91.234 406.68007,90.194 409.69607,90.194 C412.37407,90.194 415.59807,90.792 415.59807,94.016 L415.59807,101.01 C415.59807,102.232 415.72807,103.454 416.06607,104 L412.32207,104 C412.19207,103.584 412.08807,103.142 412.06207,102.7 C410.89207,103.922 409.17607,104.364 407.53807,104.364 C404.99007,104.364 402.96207,103.09 402.96207,100.334 C402.96207,97.292 405.25007,96.564 407.53807,96.252 C409.80007,95.914 411.90607,95.992 411.90607,94.484 C411.90607,92.898 410.81407,92.664 409.51407,92.664 C408.11007,92.664 407.20007,93.236 407.07007,94.692 Z M418.593641,104 L418.593641,85.436 L422.285641,85.436 L422.285641,104 L418.593641,104 Z M424.579212,99.632 L428.089212,99.632 C428.115212,101.244 429.467212,101.894 430.923212,101.894 C431.989212,101.894 433.341212,101.478 433.341212,100.178 C433.341212,99.06 431.807212,98.67 429.155212,98.098 C427.023212,97.63 424.891212,96.876 424.891212,94.51 C424.891212,91.078 427.855212,90.194 430.741212,90.194 C433.679212,90.194 436.383212,91.182 436.669212,94.484 L433.159212,94.484 C433.055212,93.054 431.963212,92.664 430.637212,92.664 C429.805212,92.664 428.583212,92.82 428.583212,93.912 C428.583212,95.238 430.663212,95.42 432.769212,95.914 C434.927212,96.408 437.033212,97.188 437.033212,99.684 C437.033212,103.22 433.965212,104.364 430.897212,104.364 C427.777212,104.364 424.735212,103.194 424.579212,99.632 Z M443.356784,85.436 L443.356784,90.428 L442.342784,98.436 L440.496784,98.436 L439.508784,90.428 L439.508784,85.436 L443.356784,85.436 Z M439.404784,104 L439.404784,99.996 L443.486784,99.996 L443.486784,104 L439.404784,104 Z" id="Hugesavingsonoutdoorsteals!" fill="#FFFFFF"></path>
            </g>
        </g>
    </g>
</svg>