<?xml version="1.0" encoding="UTF-8"?>
<svg width="500px" height="400px" viewBox="0 0 500 400" version="1.1" xmlns="http://www.w3.org/2000/svg" xmlns:xlink="http://www.w3.org/1999/xlink">
    <!-- Generator: Sketch 55.2 (78181) - https://sketchapp.com -->
    <title>500 copy</title>
    <desc>Created with Sketch.</desc>
    <g id="500-copy" stroke="none" stroke-width="1" fill="none" fill-rule="evenodd">
        <g id="SVG" transform="translate(92.000000, 16.000000)">
            <g id="1680-Button" transform="translate(91.000000, 335.000000)">
                <rect id="Rectangle" fill="#FFE586" x="0" y="0" width="134" height="34" rx="1.632"></rect>
                <path d="M30.3095238,18.8131193 L32.2569835,18.8131193 C32.2569835,20.5408448 33.5189374,21.2162284 35.0769051,21.2162284 C36.7906696,21.2162284 37.4294364,20.3680723 37.4294364,19.5199161 C37.4294364,18.6560533 36.9620461,18.3105082 36.5102354,18.1377356 C35.7312516,17.8393103 34.7185725,17.6351246 33.1917641,17.2110465 C31.2910435,16.6927288 30.7301751,15.5304407 30.7301751,14.3681526 C30.7301751,12.1221094 32.7866925,11.0697674 34.7964709,11.0697674 C37.1178429,11.0697674 39.0653025,12.3105885 39.0653025,14.6508713 L37.1178429,14.6508713 C37.0243648,13.2058645 36.0584248,12.6718402 34.7185725,12.6718402 C33.8149512,12.6718402 32.6776348,13.0016787 32.6776348,14.1325537 C32.6776348,14.9178835 33.2073438,15.3576681 34.0019074,15.5775605 C34.1732838,15.6246803 36.6348729,16.2686507 37.2113209,16.4414233 C38.6758106,16.8812079 39.3768961,18.1377356 39.3768961,19.3000237 C39.3768961,21.8130791 37.1645819,22.8183012 34.9522677,22.8183012 C32.4127803,22.8183012 30.3562628,21.5931867 30.3095238,18.8131193 Z M40.8258061,22.5512891 L40.8258061,11.3367796 L42.6018893,11.3367796 L42.6018893,15.4990275 L42.6330487,15.4990275 C43.0692797,14.7608175 43.9884806,14.2110866 45.0478987,14.2110866 C46.7928226,14.2110866 47.8989797,15.1534824 47.8989797,16.9754475 L47.8989797,22.5512891 L46.1228964,22.5512891 L46.1228964,17.4466454 C46.0917371,16.1744111 45.5931874,15.6246803 44.549349,15.6246803 C43.3652935,15.6246803 42.6018893,16.567076 42.6018893,17.7607773 L42.6018893,22.5512891 L40.8258061,22.5512891 Z M53.4609245,21.3575878 C55.0500516,21.3575878 55.7511371,19.8968744 55.7511371,18.4832807 C55.7511371,17.0853937 55.0500516,15.6246803 53.4609245,15.6246803 C51.8717974,15.6246803 51.1707119,17.0853937 51.1707119,18.4832807 C51.1707119,19.8968744 51.8717974,21.3575878 53.4609245,21.3575878 Z M53.4609245,22.7711814 C50.8746981,22.7711814 49.3946287,20.9806295 49.3946287,18.4832807 C49.3946287,16.0016386 50.8746981,14.2110866 53.4609245,14.2110866 C56.047151,14.2110866 57.5272203,16.0016386 57.5272203,18.4832807 C57.5272203,20.9806295 56.047151,22.7711814 53.4609245,22.7711814 Z M65.2547404,18.4989873 C65.2547404,17.0225673 64.4913362,15.6246803 63.0268465,15.6246803 C61.5311974,15.6246803 60.7677932,16.7712618 60.7677932,18.4989873 C60.7677932,20.1324733 61.5935162,21.3575878 63.0268465,21.3575878 C64.6471329,21.3575878 65.2547404,19.912581 65.2547404,18.4989873 Z M59.0540287,25.5512489 L59.0540287,14.430979 L60.7366339,14.430979 L60.7366339,15.5304407 L60.7677932,15.5304407 C61.2663429,14.6037515 62.2322829,14.2110866 63.2605416,14.2110866 C65.8000291,14.2110866 67.0308236,16.1587045 67.0308236,18.5304005 C67.0308236,20.7136174 65.9402462,22.7711814 63.5565555,22.7711814 C62.5282968,22.7711814 61.4221397,22.3942231 60.8612713,21.4989472 L60.830112,21.4989472 L60.830112,25.5512489 L59.0540287,25.5512489 Z M73.0289994,22.5512891 L73.0289994,11.3367796 L75.0855168,11.3367796 L80.1644917,19.5984491 L80.195651,19.5984491 L80.195651,11.3367796 L82.0496327,11.3367796 L82.0496327,22.5512891 L79.9931152,22.5512891 L74.9297201,14.3053262 L74.882981,14.3053262 L74.882981,22.5512891 L73.0289994,22.5512891 Z M87.7985336,21.3575878 C89.3876607,21.3575878 90.0887462,19.8968744 90.0887462,18.4832807 C90.0887462,17.0853937 89.3876607,15.6246803 87.7985336,15.6246803 C86.2094065,15.6246803 85.5083211,17.0853937 85.5083211,18.4832807 C85.5083211,19.8968744 86.2094065,21.3575878 87.7985336,21.3575878 Z M87.7985336,22.7711814 C85.2123072,22.7711814 83.7322378,20.9806295 83.7322378,18.4832807 C83.7322378,16.0016386 85.2123072,14.2110866 87.7985336,14.2110866 C90.3847601,14.2110866 91.8648295,16.0016386 91.8648295,18.4832807 C91.8648295,20.9806295 90.3847601,22.7711814 87.7985336,22.7711814 Z M95.1054024,22.5512891 L92.612654,14.430979 L94.497795,14.430979 L96.0713424,20.493725 L96.1025017,20.493725 L97.6137304,14.430979 L99.4053934,14.430979 L100.854303,20.493725 L100.885463,20.493725 L102.521329,14.430979 L104.328571,14.430979 L101.804664,22.5512891 L99.9818414,22.5512891 L98.4861924,16.5199562 L98.455033,16.5199562 L96.9749637,22.5512891 L95.1054024,22.5512891 Z" id="ShopNow" fill="#000000" fill-rule="nonzero"></path>
            </g>
            <g id="title" fill-rule="nonzero">
                <path d="M21.676502,30.848 C21.676502,26.14 19.520502,21.168 14.240502,21.168 C8.124502,21.168 6.276502,25.7 6.276502,30.848 C6.276502,35.556 8.344502,40.528 14.240502,40.528 C19.520502,40.528 21.676502,35.556 21.676502,30.848 Z M3.504502,50.604 L3.504502,19.496 L6.056502,19.496 L6.056502,23.808 L6.144502,23.808 C7.420502,20.728 10.588502,18.836 14.240502,18.836 C21.148502,18.836 24.448502,24.424 24.448502,30.848 C24.448502,37.272 21.148502,42.86 14.240502,42.86 C10.852502,42.86 7.552502,41.144 6.364502,37.888 L6.276502,37.888 L6.276502,50.604 L3.504502,50.604 Z M43.280502,33.4 L43.280502,29.792 L43.192502,29.792 C42.840502,30.452 41.608502,30.672 40.860502,30.804 C36.152502,31.64 30.300502,31.596 30.300502,36.04 C30.300502,38.812 32.764502,40.528 35.360502,40.528 C39.584502,40.528 43.324502,37.844 43.280502,33.4 Z M31.268502,26.448 L28.496502,26.448 C28.760502,21.124 32.500502,18.836 37.692502,18.836 C41.696502,18.836 46.052502,20.068 46.052502,26.14 L46.052502,38.196 C46.052502,39.252 46.580502,39.868 47.680502,39.868 C47.988502,39.868 48.340502,39.78 48.560502,39.692 L48.560502,42.024 C47.944502,42.156 47.504502,42.2 46.756502,42.2 C43.940502,42.2 43.500502,40.616 43.500502,38.24 L43.412502,38.24 C41.476502,41.188 39.496502,42.86 35.140502,42.86 C30.960502,42.86 27.528502,40.792 27.528502,36.216 C27.528502,29.836 33.732502,29.616 39.716502,28.912 C42.004502,28.648 43.280502,28.34 43.280502,25.832 C43.280502,22.092 40.596502,21.168 37.340502,21.168 C33.908502,21.168 31.356502,22.752 31.268502,26.448 Z M55.996502,12.676 L55.996502,19.496 L60.616502,19.496 L60.616502,21.828 L55.996502,21.828 L55.996502,37.14 C55.996502,38.944 56.260502,40 58.240502,40.132 C59.032502,40.132 59.824502,40.088 60.616502,40 L60.616502,42.376 C59.780502,42.376 58.988502,42.464 58.152502,42.464 C54.456502,42.464 53.180502,41.232 53.224502,37.36 L53.224502,21.828 L49.264502,21.828 L49.264502,19.496 L53.224502,19.496 L53.224502,12.676 L55.996502,12.676 Z M64.664502,42.2 L64.664502,19.496 L67.436502,19.496 L67.436502,42.2 L64.664502,42.2 Z M64.664502,15.228 L64.664502,10.784 L67.436502,10.784 L67.436502,15.228 L64.664502,15.228 Z M82.352502,18.836 C89.304502,18.836 93.088502,24.336 93.088502,30.848 C93.088502,37.36 89.304502,42.86 82.352502,42.86 C75.400502,42.86 71.616502,37.36 71.616502,30.848 C71.616502,24.336 75.400502,18.836 82.352502,18.836 Z M82.352502,21.168 C77.028502,21.168 74.388502,26.008 74.388502,30.848 C74.388502,35.688 77.028502,40.528 82.352502,40.528 C87.676502,40.528 90.316502,35.688 90.316502,30.848 C90.316502,26.008 87.676502,21.168 82.352502,21.168 Z" id="patio" fill="#FFFFFF"></path>
                <path d="M109.317773,35.5234375 C109.44668,36.6119846 109.725974,37.3854144 110.155664,37.84375 C110.914782,38.6601603 112.318414,39.0683594 114.366602,39.0683594 C115.569733,39.0683594 116.525778,38.8893247 117.234766,38.53125 C117.943754,38.1731753 118.298242,37.6360713 118.298242,36.9199219 C118.298242,36.2324184 118.011787,35.7096372 117.438867,35.3515625 C116.865948,34.9934878 114.739016,34.3776085 111.058008,33.5039062 C108.408255,32.8450488 106.539133,32.0214893 105.450586,31.0332031 C104.362039,30.0592399 103.817773,28.6556081 103.817773,26.8222656 C103.817773,24.6594944 104.666398,22.8011145 106.363672,21.2470703 C108.060946,19.6930261 110.449268,18.9160156 113.528711,18.9160156 C116.450601,18.9160156 118.831762,19.4996686 120.672266,20.6669922 C122.51277,21.8343157 123.569074,23.8502461 123.841211,26.7148438 L117.718164,26.7148438 C117.632226,25.9270794 117.410223,25.3040388 117.052148,24.8457031 C116.378968,24.0149698 115.233146,23.5996094 113.614648,23.5996094 C112.282611,23.5996094 111.333727,23.8072896 110.767969,24.2226562 C110.202211,24.6380229 109.919336,25.1249972 109.919336,25.6835938 C109.919336,26.3854202 110.220114,26.8938786 110.82168,27.2089844 C111.423245,27.5384131 113.550177,28.1041627 117.202539,28.90625 C119.637447,29.4791695 121.463601,30.3456973 122.681055,31.5058594 C123.884186,32.6803444 124.485742,34.1484287 124.485742,35.9101562 C124.485742,38.2304804 123.622795,40.1246671 121.896875,41.5927734 C120.170955,43.0608797 117.503338,43.7949219 113.893945,43.7949219 C110.212937,43.7949219 107.495191,43.0179114 105.740625,41.4638672 C103.986059,39.909823 103.108789,37.9296995 103.108789,35.5234375 L109.317773,35.5234375 Z M135.120508,19.5820312 L135.120508,33.6972656 C135.120508,35.0293035 135.278058,36.0318977 135.593164,36.7050781 C136.151761,37.8938862 137.247453,38.4882812 138.880273,38.4882812 C140.97143,38.4882812 142.403707,37.6432376 143.177148,35.953125 C143.578192,35.0364537 143.778711,33.8261794 143.778711,32.3222656 L143.778711,19.5820312 L149.987695,19.5820312 L149.987695,43 L144.036523,43 L144.036523,39.6914062 C143.979231,39.7630212 143.836004,39.9778628 143.606836,40.3359375 C143.377668,40.6940122 143.105535,41.0091132 142.79043,41.28125 C141.830789,42.1406293 140.90339,42.727863 140.008203,43.0429688 C139.113016,43.3580745 138.063873,43.515625 136.860742,43.515625 C133.394579,43.515625 131.059967,42.2695437 129.856836,39.7773438 C129.183655,38.4023369 128.84707,36.3756644 128.84707,33.6972656 L128.84707,19.5820312 L135.120508,19.5820312 Z M172.030664,31.2910156 C172.030664,29.4863191 171.618884,27.8893299 170.795313,26.5 C169.971741,25.1106701 168.636142,24.4160156 166.788477,24.4160156 C164.568413,24.4160156 163.043038,25.4687395 162.212305,27.5742188 C161.782615,28.6914118 161.567773,30.1093664 161.567773,31.828125 C161.567773,34.5494928 162.291073,36.461583 163.737695,37.5644531 C164.597075,38.2089876 165.613992,38.53125 166.788477,38.53125 C168.492912,38.53125 169.792704,37.8724024 170.687891,36.5546875 C171.583077,35.2369726 172.030664,33.4824328 172.030664,31.2910156 Z M168.550195,19.0664062 C171.285886,19.0664062 173.602595,20.0761618 175.500391,22.0957031 C177.398187,24.1152445 178.34707,27.0800586 178.34707,30.9902344 C178.34707,35.115255 177.419671,38.2591038 175.564844,40.421875 C173.710017,42.5846462 171.321694,43.6660156 168.399805,43.6660156 C166.537816,43.6660156 164.990957,43.2005255 163.75918,42.2695312 C163.085999,41.7539037 162.427152,41.0019581 161.782617,40.0136719 L161.782617,52.2167969 L155.724023,52.2167969 L155.724023,19.5820312 L161.589258,19.5820312 L161.589258,23.0410156 C162.248115,22.0240835 162.949931,21.2220081 163.694727,20.6347656 C165.05541,19.5891875 166.673884,19.0664062 168.550195,19.0664062 Z M192.011133,24.0078125 C190.593157,24.0078125 189.493884,24.4518185 188.713281,25.3398438 C187.932678,26.227869 187.442123,27.430982 187.241602,28.9492188 L196.75918,28.9492188 C196.658919,27.3307211 196.168364,26.1025433 195.2875,25.2646484 C194.406636,24.4267536 193.314525,24.0078125 192.011133,24.0078125 Z M192.011133,18.9589844 C193.959059,18.9589844 195.713599,19.3242151 197.274805,20.0546875 C198.83601,20.7851599 200.12506,21.9381432 201.141992,23.5136719 C202.058663,24.9030017 202.653059,26.5143137 202.925195,28.3476562 C203.082748,29.4218804 203.147201,30.9687399 203.118555,32.9882812 L187.091211,32.9882812 C187.177149,35.3372513 187.914772,36.9843703 189.304102,37.9296875 C190.149158,38.51693 191.166075,38.8105469 192.354883,38.8105469 C193.615306,38.8105469 194.639384,38.4524775 195.427148,37.7363281 C195.856838,37.3496074 196.236392,36.8125034 196.56582,36.125 L202.817773,36.125 C202.660221,37.5143299 201.936921,38.925123 200.647852,40.3574219 C198.642633,42.634777 195.83537,43.7734375 192.225977,43.7734375 C189.246795,43.7734375 186.618566,42.8138117 184.341211,40.8945312 C182.063856,38.9752508 180.925195,35.8528862 180.925195,31.5273438 C180.925195,27.4739381 181.952854,24.3658962 184.008203,22.203125 C186.063552,20.0403538 188.731168,18.9589844 192.011133,18.9589844 Z M219.962305,19.0234375 C220.076889,19.0234375 220.173567,19.0270182 220.252344,19.0341797 C220.33112,19.0413412 220.506574,19.0520833 220.778711,19.0664062 L220.778711,25.3398438 C220.39199,25.2968748 220.048244,25.2682292 219.747461,25.2539062 C219.446678,25.2395833 219.203191,25.2324219 219.016992,25.2324219 C216.553438,25.2324219 214.899158,26.0344972 214.054102,27.6386719 C213.581443,28.5410201 213.345117,29.9303292 213.345117,31.8066406 L213.345117,43 L207.179102,43 L207.179102,19.5820312 L213.022852,19.5820312 L213.022852,23.6640625 C213.968169,22.1028568 214.791728,21.0358102 215.493555,20.4628906 C216.639394,19.5032504 218.128962,19.0234375 219.962305,19.0234375 Z" id="super" fill="#FFE586"></path>
                <path d="M237.608594,35.5234375 C237.737501,36.6119846 238.016795,37.3854144 238.446484,37.84375 C239.205603,38.6601603 240.609235,39.0683594 242.657422,39.0683594 C243.860553,39.0683594 244.816598,38.8893247 245.525586,38.53125 C246.234574,38.1731753 246.589063,37.6360713 246.589063,36.9199219 C246.589063,36.2324184 246.302607,35.7096372 245.729688,35.3515625 C245.156768,34.9934878 243.029836,34.3776085 239.348828,33.5039062 C236.699075,32.8450488 234.829953,32.0214893 233.741406,31.0332031 C232.652859,30.0592399 232.108594,28.6556081 232.108594,26.8222656 C232.108594,24.6594944 232.957218,22.8011145 234.654492,21.2470703 C236.351766,19.6930261 238.740089,18.9160156 241.819531,18.9160156 C244.741421,18.9160156 247.122582,19.4996686 248.963086,20.6669922 C250.80359,21.8343157 251.859894,23.8502461 252.132031,26.7148438 L246.008984,26.7148438 C245.923046,25.9270794 245.701043,25.3040388 245.342969,24.8457031 C244.669788,24.0149698 243.523966,23.5996094 241.905469,23.5996094 C240.573431,23.5996094 239.624547,23.8072896 239.058789,24.2226562 C238.493031,24.6380229 238.210156,25.1249972 238.210156,25.6835938 C238.210156,26.3854202 238.510934,26.8938786 239.1125,27.2089844 C239.714066,27.5384131 241.840997,28.1041627 245.493359,28.90625 C247.928267,29.4791695 249.754421,30.3456973 250.971875,31.5058594 C252.175006,32.6803444 252.776563,34.1484287 252.776563,35.9101562 C252.776563,38.2304804 251.913615,40.1246671 250.187695,41.5927734 C248.461775,43.0608797 245.794159,43.7949219 242.184766,43.7949219 C238.503758,43.7949219 235.786011,43.0179114 234.031445,41.4638672 C232.276879,39.909823 231.399609,37.9296995 231.399609,35.5234375 L237.608594,35.5234375 Z M270.221875,31.6132812 C269.835154,31.8567721 269.444859,32.0537102 269.050977,32.2041016 C268.657094,32.3544929 268.11641,32.49414 267.428906,32.6230469 L266.053906,32.8808594 C264.764837,33.1100272 263.841018,33.3893213 263.282422,33.71875 C262.337105,34.2773465 261.864453,35.1438743 261.864453,36.3183594 C261.864453,37.3639375 262.154489,38.1194638 262.73457,38.5849609 C263.314651,39.0504581 264.020048,39.2832031 264.850781,39.2832031 C266.168496,39.2832031 267.382351,38.8964882 268.492383,38.1230469 C269.602414,37.3496055 270.178906,35.9388123 270.221875,33.890625 L270.221875,31.6132812 Z M266.505078,28.7558594 C267.636594,28.6126295 268.445831,28.4335948 268.932813,28.21875 C269.806515,27.8463523 270.243359,27.26628 270.243359,26.4785156 C270.243359,25.5188754 269.910355,24.8564471 269.244336,24.4912109 C268.578317,24.1259747 267.600788,23.9433594 266.311719,23.9433594 C264.865097,23.9433594 263.841019,24.3014287 263.239453,25.0175781 C262.809763,25.5475287 262.523308,26.2636674 262.380078,27.1660156 L256.471875,27.1660156 C256.600782,25.1178283 257.173693,23.4349024 258.190625,22.1171875 C259.809123,20.0546772 262.587741,19.0234375 266.526563,19.0234375 C269.090377,19.0234375 271.367698,19.531896 273.358594,20.5488281 C275.349489,21.5657603 276.344922,23.4850119 276.344922,26.3066406 L276.344922,37.0488281 C276.344922,37.7936235 276.359245,38.6959582 276.387891,39.7558594 C276.43086,40.5579467 276.552603,41.1022121 276.753125,41.3886719 C276.953647,41.6751316 277.254425,41.9114574 277.655469,42.0976562 L277.655469,43 L270.995313,43 C270.809114,42.5273414 270.680209,42.0833354 270.608594,41.6679688 C270.536979,41.2526021 270.479688,40.7799506 270.436719,40.25 C269.591662,41.1666713 268.617714,41.9472624 267.514844,42.5917969 C266.197129,43.3509153 264.70756,43.7304688 263.046094,43.7304688 C260.926291,43.7304688 259.175332,43.1253316 257.793164,41.9150391 C256.410996,40.7047466 255.719922,38.9895944 255.719922,36.7695312 C255.719922,33.8906106 256.829937,31.8066471 259.05,30.5175781 C260.267454,29.8157517 262.057801,29.3144546 264.421094,29.0136719 L266.505078,28.7558594 Z M288.032422,43 L281.909375,43 L281.909375,11.3320312 L288.032422,11.3320312 L288.032422,43 Z M303.243359,24.0078125 C301.825384,24.0078125 300.726111,24.4518185 299.945508,25.3398438 C299.164905,26.227869 298.67435,27.430982 298.473828,28.9492188 L307.991406,28.9492188 C307.891145,27.3307211 307.40059,26.1025433 306.519727,25.2646484 C305.638863,24.4267536 304.546751,24.0078125 303.243359,24.0078125 Z M303.243359,18.9589844 C305.191286,18.9589844 306.945826,19.3242151 308.507031,20.0546875 C310.068237,20.7851599 311.357287,21.9381432 312.374219,23.5136719 C313.29089,24.9030017 313.885285,26.5143137 314.157422,28.3476562 C314.314975,29.4218804 314.379427,30.9687399 314.350781,32.9882812 L298.323438,32.9882812 C298.409375,35.3372513 299.146998,36.9843703 300.536328,37.9296875 C301.381384,38.51693 302.398301,38.8105469 303.587109,38.8105469 C304.847532,38.8105469 305.871611,38.4524775 306.659375,37.7363281 C307.089065,37.3496074 307.468618,36.8125034 307.798047,36.125 L314.05,36.125 C313.892447,37.5143299 313.169147,38.925123 311.880078,40.3574219 C309.87486,42.634777 307.067596,43.7734375 303.458203,43.7734375 C300.479022,43.7734375 297.850793,42.8138117 295.573438,40.8945312 C293.296082,38.9752508 292.157422,35.8528862 292.157422,31.5273438 C292.157422,27.4739381 293.185081,24.3658962 295.24043,22.203125 C297.295779,20.0403538 299.963395,18.9589844 303.243359,18.9589844 Z" id="sale" fill="#FFE586"></path>
            </g>
            <path d="M9,77.1230769 L9,63 L12.0658379,63 L12.0658379,68.4197802 L17.709323,68.4197802 L17.709323,63 L20.7751609,63 L20.7751609,77.1230769 L17.709323,77.1230769 L17.709323,71.0307692 L12.0658379,71.0307692 L12.0658379,77.1230769 L9,77.1230769 Z M32.671672,66.8967033 L32.671672,77.1230769 L30.0354419,77.1230769 L30.0354419,75.6989011 L29.976859,75.6989011 C29.2738644,76.8461538 28.0631513,77.4 26.8914935,77.4 C23.9428214,77.4 23.2007714,75.7186813 23.2007714,73.1868132 L23.2007714,66.8967033 L25.9736949,66.8967033 L25.9736949,72.6725275 C25.9736949,74.3538462 26.4618856,75.1846154 27.7507092,75.1846154 C29.2543367,75.1846154 29.8987485,74.3340659 29.8987485,72.2571429 L29.8987485,66.8967033 L32.671672,66.8967033 Z M44.5096002,66.8967033 L44.5096002,76.4703297 C44.5096002,78.1516484 43.9237713,81 39.2761953,81 C37.2843771,81 34.9605891,80.0505495 34.8238957,77.7164835 L37.5772915,77.7164835 C37.8311507,78.7648352 38.6708388,79.1208791 39.6472203,79.1208791 C41.1899031,79.1208791 41.8928977,78.0527473 41.8733701,76.589011 L41.8733701,75.243956 L41.8343149,75.243956 C41.2289583,76.3120879 40.0182453,76.8263736 38.8075322,76.8263736 C35.7807495,76.8263736 34.491926,74.4923077 34.491926,71.6835165 C34.491926,69.032967 35.9955535,66.6197802 38.8270598,66.6197802 C40.1549387,66.6197802 41.1703754,67.0747253 41.8343149,68.2615385 L41.8733701,68.2615385 L41.8733701,66.8967033 L44.5096002,66.8967033 Z M39.5105269,74.7098901 C41.0922649,74.7098901 41.8733701,73.3450549 41.8733701,71.8813187 C41.8733701,70.2197802 41.3070688,68.7362637 39.5105269,68.7362637 C37.9483165,68.7362637 37.2648494,70.1208791 37.2648494,71.643956 C37.2648494,73.1076923 37.8116231,74.7098901 39.5105269,74.7098901 Z M56.3280007,72.6923077 L49.0441947,72.6923077 C49.1223052,74.4725275 49.981521,75.2835165 51.5242037,75.2835165 C52.6372786,75.2835165 53.5355496,74.5912088 53.7112983,73.9582418 L56.1522521,73.9582418 C55.3711468,76.3714286 53.7112983,77.4 51.4265656,77.4 C48.2435619,77.4 46.2712713,75.1846154 46.2712713,72.0197802 C46.2712713,68.9538462 48.3607277,66.6197802 51.4265656,66.6197802 C54.8634285,66.6197802 56.523277,69.5472527 56.3280007,72.6923077 Z M49.0441947,70.9120879 L53.5550773,70.9120879 C53.3012181,69.4879121 52.6958615,68.7362637 51.3484551,68.7362637 C49.5909684,68.7362637 49.08325,70.1208791 49.0441947,70.9120879 Z M62.9562361,73.8 L65.5924661,73.8 C65.6119938,75.0263736 66.6274305,75.5208791 67.7209778,75.5208791 C68.5216106,75.5208791 69.5370474,75.2043956 69.5370474,74.2153846 C69.5370474,73.3648352 68.3849172,73.0681319 66.393099,72.632967 C64.7918333,72.2769231 63.1905676,71.7032967 63.1905676,69.9032967 C63.1905676,67.2923077 65.4167174,66.6197802 67.5842844,66.6197802 C69.7909066,66.6197802 71.8217801,67.3714286 72.036584,69.8835165 L69.400354,69.8835165 C69.3222435,68.7956044 68.502083,68.4989011 67.5061739,68.4989011 C66.8812897,68.4989011 65.9634911,68.6175824 65.9634911,69.4483516 C65.9634911,70.4571429 67.5257015,70.5956044 69.1074395,70.9714286 C70.7282328,71.3472527 72.3099709,71.9406593 72.3099709,73.8395604 C72.3099709,76.5296703 70.0057105,77.4 67.7014502,77.4 C65.3581346,77.4 63.0734018,76.5098901 62.9562361,73.8 Z M80.242373,73.167033 L80.242373,72.1186813 C79.7737099,72.5340659 78.7973284,72.5538462 77.9381127,72.7120879 C77.078897,72.8901099 76.2977918,73.1868132 76.2977918,74.2153846 C76.2977918,75.2637363 77.0984246,75.5208791 77.9966956,75.5208791 C80.1642625,75.5208791 80.242373,73.7802198 80.242373,73.167033 Z M76.6102338,70.0417582 L73.8373104,70.0417582 C73.9935314,67.410989 76.3173194,66.6197802 78.5825245,66.6197802 C80.5938704,66.6197802 83.0152965,67.0747253 83.0152965,69.5274725 L83.0152965,74.8483516 C83.0152965,75.778022 83.1129346,76.7076923 83.3667938,77.1230769 L80.5548151,77.1230769 C80.457177,76.8065934 80.3790664,76.4703297 80.3595388,76.1340659 C79.4807955,77.0637363 78.1919719,77.4 76.9617312,77.4 C75.0480234,77.4 73.5248683,76.4307692 73.5248683,74.3340659 C73.5248683,72.0197802 75.2432997,71.4659341 76.9617312,71.2285714 C78.660635,70.9714286 80.242373,71.0307692 80.242373,69.8835165 C80.242373,68.6769231 79.4222126,68.4989011 78.4458311,68.4989011 C77.391339,68.4989011 76.707872,68.9340659 76.6102338,70.0417582 Z M94.1892853,66.8967033 L90.77195,77.1230769 L87.6865845,77.1230769 L84.2301939,66.8967033 L87.1398108,66.8967033 L89.2683225,73.8791209 L89.3073777,73.8791209 L91.4358894,66.8967033 L94.1892853,66.8967033 Z M95.443238,77.1230769 L95.443238,66.8967033 L98.2161614,66.8967033 L98.2161614,77.1230769 L95.443238,77.1230769 Z M98.2161614,63 L98.2161614,65.3142857 L95.443238,65.3142857 L95.443238,63 L98.2161614,63 Z M100.426968,77.1230769 L100.426968,66.8967033 L103.063198,66.8967033 L103.063198,68.3208791 L103.121781,68.3208791 C103.824776,67.1736264 105.035489,66.6197802 106.207146,66.6197802 C109.155819,66.6197802 109.897869,68.3010989 109.897869,70.832967 L109.897869,77.1230769 L107.124945,77.1230769 L107.124945,71.3472527 C107.124945,69.6659341 106.636754,68.8351648 105.347931,68.8351648 C103.844303,68.8351648 103.199891,69.6857143 103.199891,71.7626374 L103.199891,77.1230769 L100.426968,77.1230769 Z M121.735797,66.8967033 L121.735797,76.4703297 C121.735797,78.1516484 121.149968,81 116.502392,81 C114.510574,81 112.186786,80.0505495 112.050092,77.7164835 L114.803488,77.7164835 C115.057347,78.7648352 115.897035,79.1208791 116.873417,79.1208791 C118.4161,79.1208791 119.119094,78.0527473 119.099567,76.589011 L119.099567,75.243956 L119.060511,75.243956 C118.455155,76.3120879 117.244442,76.8263736 116.033729,76.8263736 C113.006946,76.8263736 111.718123,74.4923077 111.718123,71.6835165 C111.718123,69.032967 113.22175,66.6197802 116.053256,66.6197802 C117.381135,66.6197802 118.396572,67.0747253 119.060511,68.2615385 L119.099567,68.2615385 L119.099567,66.8967033 L121.735797,66.8967033 Z M116.736723,74.7098901 C118.318461,74.7098901 119.099567,73.3450549 119.099567,71.8813187 C119.099567,70.2197802 118.533265,68.7362637 116.736723,68.7362637 C115.174513,68.7362637 114.491046,70.1208791 114.491046,71.643956 C114.491046,73.1076923 115.03782,74.7098901 116.736723,74.7098901 Z M123.497468,73.8 L126.133698,73.8 C126.153226,75.0263736 127.168662,75.5208791 128.26221,75.5208791 C129.062842,75.5208791 130.078279,75.2043956 130.078279,74.2153846 C130.078279,73.3648352 128.926149,73.0681319 126.934331,72.632967 C125.333065,72.2769231 123.731799,71.7032967 123.731799,69.9032967 C123.731799,67.2923077 125.957949,66.6197802 128.125516,66.6197802 C130.332138,66.6197802 132.363012,67.3714286 132.577816,69.8835165 L129.941586,69.8835165 C129.863475,68.7956044 129.043315,68.4989011 128.047406,68.4989011 C127.422521,68.4989011 126.504723,68.6175824 126.504723,69.4483516 C126.504723,70.4571429 128.066933,70.5956044 129.648671,70.9714286 C131.269465,71.3472527 132.851203,71.9406593 132.851203,73.8395604 C132.851203,76.5296703 130.546942,77.4 128.242682,77.4 C125.899366,77.4 123.614634,76.5098901 123.497468,73.8 Z M139.635659,72.0197802 C139.635659,68.756044 141.68606,66.6197802 144.849536,66.6197802 C148.03254,66.6197802 150.082941,68.756044 150.082941,72.0197802 C150.082941,75.2637363 148.03254,77.4 144.849536,77.4 C141.68606,77.4 139.635659,75.2637363 139.635659,72.0197802 Z M142.408582,72.0197802 C142.408582,73.6417582 142.974884,75.2835165 144.849536,75.2835165 C146.743716,75.2835165 147.310018,73.6417582 147.310018,72.0197802 C147.310018,70.378022 146.743716,68.7362637 144.849536,68.7362637 C142.974884,68.7362637 142.408582,70.378022 142.408582,72.0197802 Z M151.903195,77.1230769 L151.903195,66.8967033 L154.539425,66.8967033 L154.539425,68.3208791 L154.598008,68.3208791 C155.301003,67.1736264 156.511716,66.6197802 157.683374,66.6197802 C160.632046,66.6197802 161.374096,68.3010989 161.374096,70.832967 L161.374096,77.1230769 L158.601172,77.1230769 L158.601172,71.3472527 C158.601172,69.6659341 158.112981,68.8351648 156.824158,68.8351648 C155.32053,68.8351648 154.676119,69.6857143 154.676119,71.7626374 L154.676119,77.1230769 L151.903195,77.1230769 Z M168.646743,72.0197802 C168.646743,68.756044 170.697144,66.6197802 173.86062,66.6197802 C177.043624,66.6197802 179.094025,68.756044 179.094025,72.0197802 C179.094025,75.2637363 177.043624,77.4 173.86062,77.4 C170.697144,77.4 168.646743,75.2637363 168.646743,72.0197802 Z M171.419666,72.0197802 C171.419666,73.6417582 171.985967,75.2835165 173.86062,75.2835165 C175.7548,75.2835165 176.321101,73.6417582 176.321101,72.0197802 C176.321101,70.378022 175.7548,68.7362637 173.86062,68.7362637 C171.985967,68.7362637 171.419666,70.378022 171.419666,72.0197802 Z M190.385179,66.8967033 L190.385179,77.1230769 L187.748949,77.1230769 L187.748949,75.6989011 L187.690366,75.6989011 C186.987372,76.8461538 185.776659,77.4 184.605001,77.4 C181.656329,77.4 180.914279,75.7186813 180.914279,73.1868132 L180.914279,66.8967033 L183.687202,66.8967033 L183.687202,72.6725275 C183.687202,74.3538462 184.175393,75.1846154 185.464217,75.1846154 C186.967844,75.1846154 187.612256,74.3340659 187.612256,72.2571429 L187.612256,66.8967033 L190.385179,66.8967033 Z M196.032849,63.8307692 L196.032849,66.8967033 L198.063722,66.8967033 L198.063722,68.7758242 L196.032849,68.7758242 L196.032849,73.8395604 C196.032849,74.789011 196.26718,75.0263736 197.204507,75.0263736 C197.497421,75.0263736 197.770808,75.0065934 198.063722,74.9472527 L198.063722,77.1428571 C197.595059,77.221978 196.989703,77.2417582 196.442929,77.2417582 C194.744025,77.2417582 193.259925,76.8461538 193.259925,74.8087912 L193.259925,68.7758242 L191.580549,68.7758242 L191.580549,66.8967033 L193.259925,66.8967033 L193.259925,63.8307692 L196.032849,63.8307692 Z M206.621009,77.1230769 L206.621009,75.8175824 L206.581953,75.8175824 C205.937542,76.9252747 204.804939,77.4 203.516116,77.4 C200.469805,77.4 198.985705,74.7494505 198.985705,71.9208791 C198.985705,69.1714286 200.489333,66.6197802 203.457533,66.6197802 C204.648718,66.6197802 205.820376,67.1340659 206.44526,68.1428571 L206.484315,68.1428571 L206.484315,63 L209.257239,63 L209.257239,77.1230769 L206.621009,77.1230769 Z M206.581953,71.9802198 C206.581953,70.3186813 205.996125,68.7362637 204.199583,68.7362637 C202.383513,68.7362637 201.758629,70.3186813 201.758629,72 C201.758629,73.6021978 202.481151,75.2835165 204.199583,75.2835165 C206.03518,75.2835165 206.581953,73.6615385 206.581953,71.9802198 Z M211.057965,72.0197802 C211.057965,68.756044 213.108366,66.6197802 216.271842,66.6197802 C219.454846,66.6197802 221.505247,68.756044 221.505247,72.0197802 C221.505247,75.2637363 219.454846,77.4 216.271842,77.4 C213.108366,77.4 211.057965,75.2637363 211.057965,72.0197802 Z M213.830889,72.0197802 C213.830889,73.6417582 214.39719,75.2835165 216.271842,75.2835165 C218.166022,75.2835165 218.732324,73.6417582 218.732324,72.0197802 C218.732324,70.378022 218.166022,68.7362637 216.271842,68.7362637 C214.39719,68.7362637 213.830889,70.378022 213.830889,72.0197802 Z M223.013059,72.0197802 C223.013059,68.756044 225.06346,66.6197802 228.226936,66.6197802 C231.40994,66.6197802 233.460341,68.756044 233.460341,72.0197802 C233.460341,75.2637363 231.40994,77.4 228.226936,77.4 C225.06346,77.4 223.013059,75.2637363 223.013059,72.0197802 Z M225.785983,72.0197802 C225.785983,73.6417582 226.352284,75.2835165 228.226936,75.2835165 C230.121116,75.2835165 230.687418,73.6417582 230.687418,72.0197802 C230.687418,70.378022 230.121116,68.7362637 228.226936,68.7362637 C226.352284,68.7362637 225.785983,70.378022 225.785983,72.0197802 Z M235.280595,77.1230769 L235.280595,66.8967033 L237.916825,66.8967033 L237.916825,68.7956044 L237.95588,68.7956044 C238.463599,67.5098901 239.830533,66.6197802 241.177939,66.6197802 C241.373216,66.6197802 241.607547,66.6593407 241.783296,66.7186813 L241.783296,69.3296703 C241.529437,69.2703297 241.119356,69.2307692 240.787387,69.2307692 C238.756513,69.2307692 238.053519,70.7142857 238.053519,72.5142857 L238.053519,77.1230769 L235.280595,77.1230769 Z M247.864758,73.8 L250.500988,73.8 C250.520515,75.0263736 251.535952,75.5208791 252.629499,75.5208791 C253.430132,75.5208791 254.445569,75.2043956 254.445569,74.2153846 C254.445569,73.3648352 253.293439,73.0681319 251.30162,72.632967 C249.700355,72.2769231 248.099089,71.7032967 248.099089,69.9032967 C248.099089,67.2923077 250.325239,66.6197802 252.492806,66.6197802 C254.699428,66.6197802 256.730302,67.3714286 256.945106,69.8835165 L254.308876,69.8835165 C254.230765,68.7956044 253.410605,68.4989011 252.414695,68.4989011 C251.789811,68.4989011 250.872013,68.6175824 250.872013,69.4483516 C250.872013,70.4571429 252.434223,70.5956044 254.015961,70.9714286 C255.636754,71.3472527 257.218492,71.9406593 257.218492,73.8395604 C257.218492,76.5296703 254.914232,77.4 252.609972,77.4 C250.266656,77.4 247.981923,76.5098901 247.864758,73.8 Z M262.377971,63.8307692 L262.377971,66.8967033 L264.408845,66.8967033 L264.408845,68.7758242 L262.377971,68.7758242 L262.377971,73.8395604 C262.377971,74.789011 262.612303,75.0263736 263.549629,75.0263736 C263.842543,75.0263736 264.11593,75.0065934 264.408845,74.9472527 L264.408845,77.1428571 C263.940181,77.221978 263.334825,77.2417582 262.788051,77.2417582 C261.089148,77.2417582 259.605048,76.8461538 259.605048,74.8087912 L259.605048,68.7758242 L257.925671,68.7758242 L257.925671,66.8967033 L259.605048,66.8967033 L259.605048,63.8307692 L262.377971,63.8307692 Z M275.328974,72.6923077 L268.045168,72.6923077 C268.123279,74.4725275 268.982494,75.2835165 270.525177,75.2835165 C271.638252,75.2835165 272.536523,74.5912088 272.712272,73.9582418 L275.153226,73.9582418 C274.37212,76.3714286 272.712272,77.4 270.427539,77.4 C267.244535,77.4 265.272245,75.1846154 265.272245,72.0197802 C265.272245,68.9538462 267.361701,66.6197802 270.427539,66.6197802 C273.864402,66.6197802 275.52425,69.5472527 275.328974,72.6923077 Z M268.045168,70.9120879 L272.556051,70.9120879 C272.302192,69.4879121 271.696835,68.7362637 270.349429,68.7362637 C268.591942,68.7362637 268.084223,70.1208791 268.045168,70.9120879 Z M283.280904,73.167033 L283.280904,72.1186813 C282.812241,72.5340659 281.835859,72.5538462 280.976644,72.7120879 C280.117428,72.8901099 279.336323,73.1868132 279.336323,74.2153846 C279.336323,75.2637363 280.136956,75.5208791 281.035227,75.5208791 C283.202793,75.5208791 283.280904,73.7802198 283.280904,73.167033 Z M279.648765,70.0417582 L276.875841,70.0417582 C277.032062,67.410989 279.35585,66.6197802 281.621055,66.6197802 C283.632401,66.6197802 286.053827,67.0747253 286.053827,69.5274725 L286.053827,74.8483516 C286.053827,75.778022 286.151466,76.7076923 286.405325,77.1230769 L283.593346,77.1230769 C283.495708,76.8065934 283.417597,76.4703297 283.39807,76.1340659 C282.519326,77.0637363 281.230503,77.4 280.000262,77.4 C278.086554,77.4 276.563399,76.4307692 276.563399,74.3340659 C276.563399,72.0197802 278.281831,71.4659341 280.000262,71.2285714 C281.699166,70.9714286 283.280904,71.0307692 283.280904,69.8835165 C283.280904,68.6769231 282.460744,68.4989011 281.484362,68.4989011 C280.42987,68.4989011 279.746403,68.9340659 279.648765,70.0417582 Z M288.303689,77.1230769 L288.303689,63 L291.076613,63 L291.076613,77.1230769 L288.303689,77.1230769 Z M292.799229,73.8 L295.435459,73.8 C295.454986,75.0263736 296.470423,75.5208791 297.56397,75.5208791 C298.364603,75.5208791 299.38004,75.2043956 299.38004,74.2153846 C299.38004,73.3648352 298.22791,73.0681319 296.236091,72.632967 C294.634826,72.2769231 293.03356,71.7032967 293.03356,69.9032967 C293.03356,67.2923077 295.25971,66.6197802 297.427277,66.6197802 C299.633899,66.6197802 301.664773,67.3714286 301.879577,69.8835165 L299.243346,69.8835165 C299.165236,68.7956044 298.345076,68.4989011 297.349166,68.4989011 C296.724282,68.4989011 295.806484,68.6175824 295.806484,69.4483516 C295.806484,70.4571429 297.368694,70.5956044 298.950432,70.9714286 C300.571225,71.3472527 302.152963,71.9406593 302.152963,73.8395604 C302.152963,76.5296703 299.848703,77.4 297.544443,77.4 C295.201127,77.4 292.916394,76.5098901 292.799229,73.8 Z M306.902362,63 L306.902362,66.7978022 L306.140784,72.8901099 L304.754323,72.8901099 L304.012273,66.7978022 L304.012273,63 L306.902362,63 Z M303.934162,77.1230769 L303.934162,74.0769231 L307,74.0769231 L307,77.1230769 L303.934162,77.1230769 Z" id="Hugesavingsonoutdoorsteals!" fill="#FFFFFF" fill-rule="nonzero"></path>
        </g>
    </g>
</svg>