<?xml version="1.0" encoding="UTF-8"?>
<svg width="767px" height="500px" viewBox="0 0 767 500" version="1.1" xmlns="http://www.w3.org/2000/svg" xmlns:xlink="http://www.w3.org/1999/xlink">
    <!-- Generator: Sketch 55.2 (78181) - https://sketchapp.com -->
    <title>767 copy</title>
    <desc>Created with Sketch.</desc>
    <g id="767-copy" stroke="none" stroke-width="1" fill="none" fill-rule="evenodd">
        <g id="SVG" transform="translate(154.000000, 27.000000)">
            <g id="1680-Button" transform="translate(154.000000, 413.000000)">
                <rect id="Rectangle" fill="#FFE586" x="0" y="0" width="151" height="39" rx="1.836"></rect>
                <path d="M33.7952381,20.4376356 L35.9897636,20.4376356 C35.9897636,22.4194384 37.4118161,23.1941432 39.1674364,23.1941432 C41.0986188,23.1941432 41.8184232,22.2212581 41.8184232,21.2483731 C41.8184232,20.2574717 41.2917371,19.8611111 40.7826072,19.6629308 C39.904797,19.3206194 38.7636437,19.0864064 37.0431358,18.5999638 C34.9012789,18.005423 34.2692556,16.6722102 34.2692556,15.3389973 C34.2692556,12.7626537 36.5866745,11.5555556 38.8514248,11.5555556 C41.4672991,11.5555556 43.6618246,12.9788503 43.6618246,15.6632924 L41.4672991,15.6632924 C41.3619619,14.0057845 40.2734773,13.3932273 38.7636437,13.3932273 C37.7453839,13.3932273 36.4637811,13.7715715 36.4637811,15.0687515 C36.4637811,15.969571 37.060692,16.4740299 37.9560584,16.7262593 C38.1491766,16.7803085 40.9230568,17.5189805 41.5726363,17.7171608 C43.2229195,18.2216197 44.0129487,19.6629308 44.0129487,20.9961436 C44.0129487,23.878766 41.5199677,25.0318149 39.0269868,25.0318149 C36.1653256,25.0318149 33.8479067,23.6265365 33.7952381,20.4376356 Z M45.6456756,24.7255363 L45.6456756,11.8618342 L47.6470828,11.8618342 L47.6470828,16.6361774 L47.6821952,16.6361774 C48.1737689,15.7894071 49.2095849,15.1588335 50.4034068,15.1588335 C52.3697016,15.1588335 53.6161921,16.2398168 53.6161921,18.329718 L53.6161921,24.7255363 L51.6147849,24.7255363 L51.6147849,18.8702097 C51.5796724,17.4108821 51.0178739,16.7803085 49.8416083,16.7803085 C48.5073368,16.7803085 47.6470828,17.8612919 47.6470828,19.2305375 L47.6470828,24.7255363 L45.6456756,24.7255363 Z M59.8837568,23.3562907 C61.6744896,23.3562907 62.4645187,21.6807664 62.4645187,20.0592914 C62.4645187,18.4558327 61.6744896,16.7803085 59.8837568,16.7803085 C58.093024,16.7803085 57.3029949,18.4558327 57.3029949,20.0592914 C57.3029949,21.6807664 58.093024,23.3562907 59.8837568,23.3562907 Z M59.8837568,24.9777657 C56.969427,24.9777657 55.3015876,22.9238973 55.3015876,20.0592914 C55.3015876,17.2127019 56.969427,15.1588335 59.8837568,15.1588335 C62.7980866,15.1588335 64.465926,17.2127019 64.465926,20.0592914 C64.465926,22.9238973 62.7980866,24.9777657 59.8837568,24.9777657 Z M73.173803,20.0773078 C73.173803,18.3837672 72.313549,16.7803085 70.6632659,16.7803085 C68.9778703,16.7803085 68.1176163,18.0955049 68.1176163,20.0773078 C68.1176163,21.9510123 69.0480951,23.3562907 70.6632659,23.3562907 C72.4891111,23.3562907 73.173803,21.6987828 73.173803,20.0773078 Z M66.1864339,28.1666667 L66.1864339,15.4110629 L68.0825039,15.4110629 L68.0825039,16.6722102 L68.1176163,16.6722102 C68.6794149,15.6092432 69.7678995,15.1588335 70.9266089,15.1588335 C73.7882701,15.1588335 75.1752102,17.3928658 75.1752102,20.1133406 C75.1752102,22.6176187 73.946276,24.9777657 71.2601768,24.9777657 C70.1014674,24.9777657 68.8549769,24.5453724 68.2229536,23.5184382 L68.1878412,23.5184382 L68.1878412,28.1666667 L66.1864339,28.1666667 Z M81.9343487,24.7255363 L81.9343487,11.8618342 L84.2517675,11.8618342 L89.97509,21.338455 L90.0102024,21.338455 L90.0102024,11.8618342 L92.0993906,11.8618342 L92.0993906,24.7255363 L89.7819717,24.7255363 L84.0762055,15.2669318 L84.0235369,15.2669318 L84.0235369,24.7255363 L81.9343487,24.7255363 Z M98.5776298,23.3562907 C100.368363,23.3562907 101.158392,21.6807664 101.158392,20.0592914 C101.158392,18.4558327 100.368363,16.7803085 98.5776298,16.7803085 C96.786897,16.7803085 95.9968678,18.4558327 95.9968678,20.0592914 C95.9968678,21.6807664 96.786897,23.3562907 98.5776298,23.3562907 Z M98.5776298,24.9777657 C95.6633,24.9777657 93.9954606,22.9238973 93.9954606,20.0592914 C93.9954606,17.2127019 95.6633,15.1588335 98.5776298,15.1588335 C101.49196,15.1588335 103.159799,17.2127019 103.159799,20.0592914 C103.159799,22.9238973 101.49196,24.9777657 98.5776298,24.9777657 Z M106.811489,24.7255363 L104.002497,15.4110629 L106.126797,15.4110629 L107.899974,22.3653893 L107.935086,22.3653893 L109.638038,15.4110629 L111.657002,15.4110629 L113.289728,22.3653893 L113.324841,22.3653893 L115.168242,15.4110629 L117.204762,15.4110629 L114.360657,24.7255363 L112.306581,24.7255363 L110.621186,17.8072427 L110.586073,17.8072427 L108.918234,24.7255363 L106.811489,24.7255363 Z" id="ShopNow" fill="#000000" fill-rule="nonzero"></path>
            </g>
            <g id="title" fill-rule="nonzero">
                <path d="M27.4226232,30.5187333 C27.4226232,23.4445575 24.1980774,15.9736989 16.3012306,15.9736989 C7.15404979,15.9736989 4.39015342,22.7834195 4.39015342,30.5187333 C4.39015342,37.5929092 7.48308507,45.0637678 16.3012306,45.0637678 C24.1980774,45.0637678 27.4226232,37.5929092 27.4226232,30.5187333 Z M0.244308863,60.2038264 L0.244308863,13.4613747 L4.06111814,13.4613747 L4.06111814,19.9405264 L4.19273225,19.9405264 C6.10113689,15.3125609 10.839245,12.4696678 16.3012306,12.4696678 C26.6329385,12.4696678 31.5684677,20.8661195 31.5684677,30.5187333 C31.5684677,40.1713471 26.6329385,48.5677989 16.3012306,48.5677989 C11.2340873,48.5677989 6.29855806,45.9893609 4.52176753,41.0969402 L4.39015342,41.0969402 L4.39015342,60.2038264 L0.244308863,60.2038264 Z M59.7338879,34.3533333 L59.7338879,28.9320023 L59.6022738,28.9320023 C59.0758173,29.9237092 57.2332198,30.2542782 56.1144998,30.4526195 C49.0731448,31.7087816 40.3208062,31.6426678 40.3208062,38.3201609 C40.3208062,42.4853299 44.0060014,45.0637678 47.8886177,45.0637678 C54.2060952,45.0637678 59.799695,41.0308264 59.7338879,34.3533333 Z M41.7685615,23.907354 L37.6227169,23.907354 C38.0175593,15.9075851 43.6111591,12.4696678 51.3763917,12.4696678 C57.3648339,12.4696678 63.8797325,14.320854 63.8797325,23.4445575 L63.8797325,41.5597368 C63.8797325,43.1464678 64.6694171,44.0720609 66.3145935,44.0720609 C66.7752429,44.0720609 67.3016994,43.9398333 67.6307347,43.8076057 L67.6307347,47.3116368 C66.7094359,47.5099782 66.0513653,47.576092 64.9326454,47.576092 C60.7209937,47.576092 60.0629232,45.1959954 60.0629232,41.6258506 L59.9313091,41.6258506 C57.0357986,46.0554747 54.074481,48.5677989 47.5595825,48.5677989 C41.3079121,48.5677989 36.1749617,45.4604506 36.1749617,38.5846161 C36.1749617,28.9981161 45.4537566,28.6675471 54.4035163,27.6097264 C57.8254833,27.2130437 59.7338879,26.7502471 59.7338879,22.9817609 C59.7338879,17.3620885 55.7196575,15.9736989 50.8499353,15.9736989 C45.7169849,15.9736989 41.9001756,18.3537954 41.7685615,23.907354 Z M78.7521272,3.21373678 L78.7521272,13.4613747 L85.6618681,13.4613747 L85.6618681,16.9654057 L78.7521272,16.9654057 L78.7521272,39.9730057 C78.7521272,42.6836713 79.1469695,44.2704023 82.1082871,44.4687437 C83.2928141,44.4687437 84.4773411,44.4026299 85.6618681,44.2704023 L85.6618681,47.8405471 C84.4115341,47.8405471 83.227007,47.9727747 81.976673,47.9727747 C76.4488802,47.9727747 74.5404756,46.1215885 74.6062827,40.3035747 L74.6062827,16.9654057 L68.6836476,16.9654057 L68.6836476,13.4613747 L74.6062827,13.4613747 L74.6062827,3.21373678 L78.7521272,3.21373678 Z M91.7161173,47.576092 L91.7161173,13.4613747 L95.8619619,13.4613747 L95.8619619,47.576092 L91.7161173,47.576092 Z M91.7161173,7.04833678 L91.7161173,0.370843678 L95.8619619,0.370843678 L95.8619619,7.04833678 L91.7161173,7.04833678 Z M118.170554,12.4696678 C128.568069,12.4696678 134.227476,20.733892 134.227476,30.5187333 C134.227476,40.3035747 128.568069,48.5677989 118.170554,48.5677989 C107.773039,48.5677989 102.113632,40.3035747 102.113632,30.5187333 C102.113632,20.733892 107.773039,12.4696678 118.170554,12.4696678 Z M118.170554,15.9736989 C110.2079,15.9736989 106.259477,23.2462161 106.259477,30.5187333 C106.259477,37.7912506 110.2079,45.0637678 118.170554,45.0637678 C126.133208,45.0637678 130.081631,37.7912506 130.081631,30.5187333 C130.081631,23.2462161 126.133208,15.9736989 118.170554,15.9736989 Z" id="patio" fill="#FFFFFF"></path>
                <path d="M158.300801,36.6853605 C158.493596,38.3209964 158.911312,39.4831413 159.553963,40.1718301 C160.689311,41.398557 162.788604,42.0119113 165.851904,42.0119113 C167.651324,42.0119113 169.0812,41.7428962 170.141573,41.2048581 C171.201946,40.66682 171.732124,39.8597749 171.732124,38.7836987 C171.732124,37.7506655 171.303697,36.9651417 170.44683,36.4271035 C169.589963,35.8890654 166.408892,34.9636537 160.903521,33.6508407 C156.940512,32.6608506 154.145025,31.4233815 152.516978,29.9383963 C150.88893,28.4749326 150.074919,26.3658549 150.074919,23.6110997 C150.074919,20.3613495 151.344134,17.5689735 153.882603,15.2338881 C156.421071,12.8988027 159.993082,11.7312775 164.598742,11.7312775 C168.968764,11.7312775 172.530064,12.6082665 175.282749,14.3622707 C178.035434,16.116275 179.615259,19.1453841 180.022271,23.4496891 L170.864551,23.4496891 C170.73602,22.2660052 170.403989,21.3298329 169.868448,20.6411441 C168.861629,19.3928957 167.147921,18.7687809 164.727271,18.7687809 C162.735056,18.7687809 161.315891,19.0808383 160.469735,19.7049625 C159.623579,20.3290867 159.200507,21.0608076 159.200507,21.900147 C159.200507,22.9547018 159.650355,23.7187044 160.550066,24.192178 C161.449776,24.687173 164.630847,25.5372605 170.093374,26.7424659 C173.735059,27.6033269 176.466281,28.9053596 178.287124,30.6486031 C180.086544,32.4133681 180.986241,34.6192913 180.986241,37.2664388 C180.986241,40.7529258 179.695605,43.5991047 177.114293,45.805061 C174.532981,48.0110173 170.543254,49.1139789 165.144992,49.1139789 C159.639621,49.1139789 155.57492,47.9464537 152.950764,45.6113683 C150.326609,43.2762828 149.014551,40.3009767 149.014551,36.6853605 L158.300801,36.6853605 Z M196.891755,12.7320234 L196.891755,33.9413799 C196.891755,35.9428817 197.12739,37.4493658 197.598667,38.4608774 C198.434113,40.247164 200.072846,41.1402939 202.514917,41.1402939 C205.642482,41.1402939 207.784617,39.870543 208.941387,37.3310031 C209.541194,35.9536255 209.841093,34.1350839 209.841093,31.8753238 L209.841093,12.7320234 L219.127343,12.7320234 L219.127343,47.9195402 L210.226681,47.9195402 L210.226681,42.9480929 C210.140995,43.0557005 209.926781,43.3785185 209.584034,43.9165567 C209.241288,44.4545948 208.834282,44.9280612 208.363005,45.3369702 C206.927753,46.6282617 205.54072,47.5106309 204.201865,47.9841045 C202.863011,48.457578 201.293897,48.6943112 199.494476,48.6943112 C194.310431,48.6943112 190.81875,46.8219667 189.019329,43.0772214 C188.012511,41.011155 187.509109,37.965905 187.509109,33.9413799 L187.509109,12.7320234 L196.891755,12.7320234 Z M252.095136,30.3257818 C252.095136,27.6140697 251.479272,25.2144557 250.247526,23.1268678 C249.015779,21.0392799 247.018238,19.9955016 244.254842,19.9955016 C240.934482,19.9955016 238.653108,21.57731 237.410651,24.7409741 C236.768001,26.419653 236.446681,28.550252 236.446681,31.1328349 C236.446681,35.2219246 237.528459,38.0950051 239.692048,39.7521625 C240.977349,40.7206311 242.498265,41.2048581 244.254842,41.2048581 C246.804021,41.2048581 248.748009,40.2148828 250.086864,38.2349026 C251.425719,36.2549223 252.095136,33.6185751 252.095136,30.3257818 Z M246.889695,11.9572524 C250.981235,11.9572524 254.446139,13.4744971 257.284511,16.5090321 C260.122883,19.5435671 261.542047,23.9984558 261.542047,29.8738321 C261.542047,36.0720311 260.155015,40.7959349 257.380908,44.0456852 C254.606801,47.2954354 251.03479,48.9202861 246.664768,48.9202861 C243.879951,48.9202861 241.566444,48.2208471 239.72418,46.821948 C238.717362,46.0471731 237.731979,44.91731 236.768004,43.4323248 L236.768004,61.7685721 L227.706681,61.7685721 L227.706681,12.7320234 L236.478813,12.7320234 L236.478813,17.9294456 C237.46421,16.4014174 238.513856,15.1962301 239.627783,14.3138475 C241.662842,12.7427762 244.083455,11.9572524 246.889695,11.9572524 Z M281.978223,19.3821413 C279.857477,19.3821413 278.213388,20.0492985 277.045907,21.383633 C275.878426,22.7179676 275.144744,24.5257485 274.844841,26.8070301 L289.079473,26.8070301 C288.929521,24.3750978 288.19584,22.5296548 286.878407,21.2706456 C285.560974,20.0116364 283.927595,19.3821413 281.978223,19.3821413 Z M281.978223,11.7958418 C284.891571,11.7958418 287.515687,12.3446324 289.850649,13.4422302 C292.185612,14.5398279 294.113534,16.2722847 295.634472,18.6396524 C297.00546,20.7272403 297.894446,23.1483755 298.301458,25.9031306 C298.537096,27.517245 298.633492,29.8415348 298.590649,32.8760697 L274.619914,32.8760697 C274.748444,36.4055998 275.851644,38.880538 277.929547,40.3009586 C279.193425,41.1833411 280.714342,41.6245257 282.492341,41.6245257 C284.377448,41.6245257 285.909075,41.0864957 287.087267,40.0104195 C287.729917,39.4293383 288.297583,38.6222932 288.790282,37.5892601 L298.140796,37.5892601 C297.905158,39.6768479 296.823379,41.7966863 294.895428,43.9488388 C291.896394,47.3707612 287.697809,49.0816967 282.299546,49.0816967 C277.843838,49.0816967 273.91302,47.6397762 270.506973,44.7558919 C267.100927,41.8720076 265.397929,37.1803856 265.397929,30.6808852 C265.397929,24.5902937 266.934912,19.9201929 270.008922,16.6704427 C273.082932,13.4206925 277.072659,11.7958418 281.978223,11.7958418 Z M323.782413,11.8926881 C323.953786,11.8926881 324.09838,11.8980684 324.216199,11.9088292 C324.334019,11.91959 324.59643,11.9357309 325.003442,11.9572524 L325.003442,21.383633 C324.425057,21.3190685 323.910944,21.2760261 323.461089,21.2545045 C323.011234,21.232983 322.647071,21.2222224 322.368589,21.2222224 C318.684061,21.2222224 316.209895,22.4274097 314.946016,24.8378205 C314.239101,26.1936765 313.885648,28.2812331 313.885648,31.1005528 L313.885648,47.9195402 L304.663663,47.9195402 L304.663663,12.7320234 L313.403663,12.7320234 L313.403663,18.8656272 C314.817494,16.5197811 316.049221,14.9164515 317.098883,14.0555905 C318.812617,12.6136484 321.040438,11.8926881 323.782413,11.8926881 Z" id="super" fill="#FFE586"></path>
                <path d="M350.174466,36.6853605 C350.367261,38.3209964 350.784977,39.4831413 351.427628,40.1718301 C352.562976,41.398557 354.662269,42.0119113 357.725569,42.0119113 C359.524989,42.0119113 360.954865,41.7428962 362.015237,41.2048581 C363.07561,40.66682 363.605789,39.8597749 363.605789,38.7836987 C363.605789,37.7506655 363.177362,36.9651417 362.320495,36.4271035 C361.463628,35.8890654 358.282557,34.9636537 352.777186,33.6508407 C348.814176,32.6608506 346.01869,31.4233815 344.390643,29.9383963 C342.762595,28.4749326 341.948584,26.3658549 341.948584,23.6110997 C341.948584,20.3613495 343.217799,17.5689735 345.756267,15.2338881 C348.294736,12.8988027 351.866747,11.7312775 356.472407,11.7312775 C360.842428,11.7312775 364.403729,12.6082665 367.156414,14.3622707 C369.909099,16.116275 371.488924,19.1453841 371.895936,23.4496891 L362.738215,23.4496891 C362.609685,22.2660052 362.277654,21.3298329 361.742112,20.6411441 C360.735294,19.3928957 359.021585,18.7687809 356.600936,18.7687809 C354.60872,18.7687809 353.189556,19.0808383 352.3434,19.7049625 C351.497243,20.3290867 351.074172,21.0608076 351.074172,21.900147 C351.074172,22.9547018 351.52402,23.7187044 352.42373,24.192178 C353.323441,24.687173 356.504512,25.5372605 361.967039,26.7424659 C365.608724,27.6033269 368.339946,28.9053596 370.160789,30.6486031 C371.960209,32.4133681 372.859906,34.6192913 372.859906,37.2664388 C372.859906,40.7529258 371.56927,43.5991047 368.987958,45.805061 C366.406646,48.0110173 362.416919,49.1139789 357.018657,49.1139789 C351.513286,49.1139789 347.448584,47.9464537 344.824429,45.6113683 C342.200274,43.2762828 340.888216,40.3009767 340.888216,36.6853605 L350.174466,36.6853605 Z M398.951376,30.8100137 C398.372991,31.1758796 397.789259,31.4717961 397.200163,31.6977721 C396.611067,31.9237482 395.802411,32.1335799 394.77417,32.3272736 L392.7177,32.7146591 C390.789749,33.0590035 389.408072,33.4786669 388.572626,33.973662 C387.158796,34.8130015 386.451891,36.1150342 386.451891,37.8797992 C386.451891,39.4508705 386.885673,40.5861139 387.753251,41.2855634 C388.620829,41.985013 389.675831,42.3347325 390.918288,42.3347325 C392.889082,42.3347325 394.704542,41.7536601 396.364722,40.5914977 C398.024901,39.4293354 398.887111,37.309497 398.951376,34.231919 L398.951376,30.8100137 Z M393.392479,26.516491 C395.084791,26.3012758 396.295098,26.0322607 397.023435,25.7094379 C398.330157,25.1498782 398.983508,24.2782695 398.983508,23.0945857 C398.983508,21.6526435 398.485462,20.657288 397.489354,20.1084891 C396.493246,19.5596902 395.031239,19.2852949 393.103288,19.2852949 C390.939699,19.2852949 389.408072,19.8233249 388.508362,20.8994012 C387.865711,21.6956976 387.437284,22.7717577 387.223067,24.1276137 L378.386671,24.1276137 C378.579466,21.0500357 379.43632,18.5212945 380.957259,16.5413142 C383.377908,13.4422147 387.533651,11.8926881 393.424611,11.8926881 C397.259091,11.8926881 400.665086,12.6566908 403.642699,14.184719 C406.620312,15.7127473 408.109096,18.5965883 408.109096,22.8363287 L408.109096,38.9773915 C408.109096,40.0965107 408.130517,41.4523465 408.173361,43.0449393 C408.237626,44.2501447 408.419707,45.0679503 408.719611,45.4983808 C409.019514,45.9288113 409.469363,46.2839111 410.06917,46.563691 L410.06917,47.9195402 L400.108141,47.9195402 C399.829659,47.2093299 399.636867,46.5421727 399.529758,45.9180484 C399.42265,45.2939242 399.336964,44.5837246 399.272699,43.7874282 C398.008821,45.1648057 396.552168,46.3377112 394.9027,47.3061798 C392.931905,48.4468207 390.704085,49.0171325 388.21917,49.0171325 C385.048762,49.0171325 382.430002,48.1078617 380.36281,46.2892929 C378.295619,44.4707241 377.262038,41.8935601 377.262038,38.5577238 C377.262038,34.2318974 378.922193,31.1005625 382.242553,29.1636253 C384.063395,28.1090706 386.741065,27.3558285 390.275641,26.9038765 L393.392479,26.516491 Z M425.589095,47.9195402 L416.431375,47.9195402 L416.431375,0.335687186 L425.589095,0.335687186 L425.589095,47.9195402 Z M448.338801,19.3821413 C446.218055,19.3821413 444.573966,20.0492985 443.406485,21.383633 C442.239003,22.7179676 441.505322,24.5257485 441.205418,26.8070301 L455.44005,26.8070301 C455.290099,24.3750978 454.556417,22.5296548 453.238984,21.2706456 C451.921551,20.0116364 450.288173,19.3821413 448.338801,19.3821413 Z M448.338801,11.7958418 C451.252148,11.7958418 453.876264,12.3446324 456.211227,13.4422302 C458.546189,14.5398279 460.474111,16.2722847 461.99505,18.6396524 C463.366037,20.7272403 464.255023,23.1483755 464.662035,25.9031306 C464.897674,27.517245 464.99407,29.8415348 464.951226,32.8760697 L440.980492,32.8760697 C441.109022,36.4055998 442.212222,38.880538 444.290124,40.3009586 C445.554003,41.1833411 447.074919,41.6245257 448.852918,41.6245257 C450.738026,41.6245257 452.269652,41.0864957 453.447844,40.0104195 C454.090495,39.4293383 454.658161,38.6222932 455.150859,37.5892601 L464.501373,37.5892601 C464.265735,39.6768479 463.183957,41.7966863 461.256006,43.9488388 C458.256971,47.3707612 454.058386,49.0816967 448.660124,49.0816967 C444.204416,49.0816967 440.273597,47.6397762 436.867551,44.7558919 C433.461505,41.8720076 431.758507,37.1803856 431.758507,30.6808852 C431.758507,24.5902937 433.295489,19.9201929 436.3695,16.6704427 C439.44351,13.4206925 443.433237,11.7958418 448.338801,11.7958418 Z" id="sale" fill="#FFE586"></path>
                <path d="M30.7156452,96 L30.7156452,77.436 L34.7976452,77.436 L34.7976452,84.56 L42.3116452,84.56 L42.3116452,77.436 L46.3936452,77.436 L46.3936452,96 L42.3116452,96 L42.3116452,87.992 L34.7976452,87.992 L34.7976452,96 L30.7156452,96 Z M62.2332164,82.558 L62.2332164,96 L58.7232164,96 L58.7232164,94.128 L58.6452164,94.128 C57.7092164,95.636 56.0972164,96.364 54.5372164,96.364 C50.6112164,96.364 49.6232164,94.154 49.6232164,90.826 L49.6232164,82.558 L53.3152164,82.558 L53.3152164,90.15 C53.3152164,92.36 53.9652164,93.452 55.6812164,93.452 C57.6832164,93.452 58.5412164,92.334 58.5412164,89.604 L58.5412164,82.558 L62.2332164,82.558 Z M77.9947877,82.558 L77.9947877,95.142 C77.9947877,97.352 77.2147877,101.096 71.0267877,101.096 C68.3747877,101.096 65.2807877,99.848 65.0987877,96.78 L68.7647877,96.78 C69.1027877,98.158 70.2207877,98.626 71.5207877,98.626 C73.5747877,98.626 74.5107877,97.222 74.4847877,95.298 L74.4847877,93.53 L74.4327877,93.53 C73.6267877,94.934 72.0147877,95.61 70.4027877,95.61 C66.3727877,95.61 64.6567877,92.542 64.6567877,88.85 C64.6567877,85.366 66.6587877,82.194 70.4287877,82.194 C72.1967877,82.194 73.5487877,82.792 74.4327877,84.352 L74.4847877,84.352 L74.4847877,82.558 L77.9947877,82.558 Z M71.3387877,92.828 C73.4447877,92.828 74.4847877,91.034 74.4847877,89.11 C74.4847877,86.926 73.7307877,84.976 71.3387877,84.976 C69.2587877,84.976 68.3487877,86.796 68.3487877,88.798 C68.3487877,90.722 69.0767877,92.828 71.3387877,92.828 Z M93.730359,90.176 L84.032359,90.176 C84.136359,92.516 85.280359,93.582 87.334359,93.582 C88.816359,93.582 90.012359,92.672 90.246359,91.84 L93.496359,91.84 C92.456359,95.012 90.246359,96.364 87.204359,96.364 C82.966359,96.364 80.340359,93.452 80.340359,89.292 C80.340359,85.262 83.122359,82.194 87.204359,82.194 C91.780359,82.194 93.990359,86.042 93.730359,90.176 Z M84.032359,87.836 L90.038359,87.836 C89.700359,85.964 88.894359,84.976 87.100359,84.976 C84.760359,84.976 84.084359,86.796 84.032359,87.836 Z M102.555502,91.632 L106.065502,91.632 C106.091502,93.244 107.443502,93.894 108.899502,93.894 C109.965502,93.894 111.317502,93.478 111.317502,92.178 C111.317502,91.06 109.783502,90.67 107.131502,90.098 C104.999502,89.63 102.867502,88.876 102.867502,86.51 C102.867502,83.078 105.831502,82.194 108.717502,82.194 C111.655502,82.194 114.359502,83.182 114.645502,86.484 L111.135502,86.484 C111.031502,85.054 109.939502,84.664 108.613502,84.664 C107.781502,84.664 106.559502,84.82 106.559502,85.912 C106.559502,87.238 108.639502,87.42 110.745502,87.914 C112.903502,88.408 115.009502,89.188 115.009502,91.684 C115.009502,95.22 111.941502,96.364 108.873502,96.364 C105.753502,96.364 102.711502,95.194 102.555502,91.632 Z M125.571073,90.8 L125.571073,89.422 C124.947073,89.968 123.647073,89.994 122.503073,90.202 C121.359073,90.436 120.319073,90.826 120.319073,92.178 C120.319073,93.556 121.385073,93.894 122.581073,93.894 C125.467073,93.894 125.571073,91.606 125.571073,90.8 Z M120.735073,86.692 L117.043073,86.692 C117.251073,83.234 120.345073,82.194 123.361073,82.194 C126.039073,82.194 129.263073,82.792 129.263073,86.016 L129.263073,93.01 C129.263073,94.232 129.393073,95.454 129.731073,96 L125.987073,96 C125.857073,95.584 125.753073,95.142 125.727073,94.7 C124.557073,95.922 122.841073,96.364 121.203073,96.364 C118.655073,96.364 116.627073,95.09 116.627073,92.334 C116.627073,89.292 118.915073,88.564 121.203073,88.252 C123.465073,87.914 125.571073,87.992 125.571073,86.484 C125.571073,84.898 124.479073,84.664 123.179073,84.664 C121.775073,84.664 120.865073,85.236 120.735073,86.692 Z M144.140644,82.558 L139.590644,96 L135.482644,96 L130.880644,82.558 L134.754644,82.558 L137.588644,91.736 L137.640644,91.736 L140.474644,82.558 L144.140644,82.558 Z M145.810215,96 L145.810215,82.558 L149.502215,82.558 L149.502215,96 L145.810215,96 Z M149.502215,77.436 L149.502215,80.478 L145.810215,80.478 L145.810215,77.436 L149.502215,77.436 Z M152.445787,96 L152.445787,82.558 L155.955787,82.558 L155.955787,84.43 L156.033787,84.43 C156.969787,82.922 158.581787,82.194 160.141787,82.194 C164.067787,82.194 165.055787,84.404 165.055787,87.732 L165.055787,96 L161.363787,96 L161.363787,88.408 C161.363787,86.198 160.713787,85.106 158.997787,85.106 C156.995787,85.106 156.137787,86.224 156.137787,88.954 L156.137787,96 L152.445787,96 Z M180.817358,82.558 L180.817358,95.142 C180.817358,97.352 180.037358,101.096 173.849358,101.096 C171.197358,101.096 168.103358,99.848 167.921358,96.78 L171.587358,96.78 C171.925358,98.158 173.043358,98.626 174.343358,98.626 C176.397358,98.626 177.333358,97.222 177.307358,95.298 L177.307358,93.53 L177.255358,93.53 C176.449358,94.934 174.837358,95.61 173.225358,95.61 C169.195358,95.61 167.479358,92.542 167.479358,88.85 C167.479358,85.366 169.481358,82.194 173.251358,82.194 C175.019358,82.194 176.371358,82.792 177.255358,84.352 L177.307358,84.352 L177.307358,82.558 L180.817358,82.558 Z M174.161358,92.828 C176.267358,92.828 177.307358,91.034 177.307358,89.11 C177.307358,86.926 176.553358,84.976 174.161358,84.976 C172.081358,84.976 171.171358,86.796 171.171358,88.798 C171.171358,90.722 171.899358,92.828 174.161358,92.828 Z M183.162929,91.632 L186.672929,91.632 C186.698929,93.244 188.050929,93.894 189.506929,93.894 C190.572929,93.894 191.924929,93.478 191.924929,92.178 C191.924929,91.06 190.390929,90.67 187.738929,90.098 C185.606929,89.63 183.474929,88.876 183.474929,86.51 C183.474929,83.078 186.438929,82.194 189.324929,82.194 C192.262929,82.194 194.966929,83.182 195.252929,86.484 L191.742929,86.484 C191.638929,85.054 190.546929,84.664 189.220929,84.664 C188.388929,84.664 187.166929,84.82 187.166929,85.912 C187.166929,87.238 189.246929,87.42 191.352929,87.914 C193.510929,88.408 195.616929,89.188 195.616929,91.684 C195.616929,95.22 192.548929,96.364 189.480929,96.364 C186.360929,96.364 183.318929,95.194 183.162929,91.632 Z M204.650072,89.292 C204.650072,85.002 207.380072,82.194 211.592072,82.194 C215.830072,82.194 218.560072,85.002 218.560072,89.292 C218.560072,93.556 215.830072,96.364 211.592072,96.364 C207.380072,96.364 204.650072,93.556 204.650072,89.292 Z M208.342072,89.292 C208.342072,91.424 209.096072,93.582 211.592072,93.582 C214.114072,93.582 214.868072,91.424 214.868072,89.292 C214.868072,87.134 214.114072,84.976 211.592072,84.976 C209.096072,84.976 208.342072,87.134 208.342072,89.292 Z M220.983643,96 L220.983643,82.558 L224.493643,82.558 L224.493643,84.43 L224.571643,84.43 C225.507643,82.922 227.119643,82.194 228.679643,82.194 C232.605643,82.194 233.593643,84.404 233.593643,87.732 L233.593643,96 L229.901643,96 L229.901643,88.408 C229.901643,86.198 229.251643,85.106 227.535643,85.106 C225.533643,85.106 224.675643,86.224 224.675643,88.954 L224.675643,96 L220.983643,96 Z M243.276786,89.292 C243.276786,85.002 246.006786,82.194 250.218786,82.194 C254.456786,82.194 257.186786,85.002 257.186786,89.292 C257.186786,93.556 254.456786,96.364 250.218786,96.364 C246.006786,96.364 243.276786,93.556 243.276786,89.292 Z M246.968786,89.292 C246.968786,91.424 247.722786,93.582 250.218786,93.582 C252.740786,93.582 253.494786,91.424 253.494786,89.292 C253.494786,87.134 252.740786,84.976 250.218786,84.976 C247.722786,84.976 246.968786,87.134 246.968786,89.292 Z M272.220357,82.558 L272.220357,96 L268.710357,96 L268.710357,94.128 L268.632357,94.128 C267.696357,95.636 266.084357,96.364 264.524357,96.364 C260.598357,96.364 259.610357,94.154 259.610357,90.826 L259.610357,82.558 L263.302357,82.558 L263.302357,90.15 C263.302357,92.36 263.952357,93.452 265.668357,93.452 C267.670357,93.452 268.528357,92.334 268.528357,89.604 L268.528357,82.558 L272.220357,82.558 Z M279.739928,78.528 L279.739928,82.558 L282.443928,82.558 L282.443928,85.028 L279.739928,85.028 L279.739928,91.684 C279.739928,92.932 280.051928,93.244 281.299928,93.244 C281.689928,93.244 282.053928,93.218 282.443928,93.14 L282.443928,96.026 C281.819928,96.13 281.013928,96.156 280.285928,96.156 C278.023928,96.156 276.047928,95.636 276.047928,92.958 L276.047928,85.028 L273.811928,85.028 L273.811928,82.558 L276.047928,82.558 L276.047928,78.528 L279.739928,78.528 Z M293.837499,96 L293.837499,94.284 L293.785499,94.284 C292.927499,95.74 291.419499,96.364 289.703499,96.364 C285.647499,96.364 283.671499,92.88 283.671499,89.162 C283.671499,85.548 285.673499,82.194 289.625499,82.194 C291.211499,82.194 292.771499,82.87 293.603499,84.196 L293.655499,84.196 L293.655499,77.436 L297.347499,77.436 L297.347499,96 L293.837499,96 Z M293.785499,89.24 C293.785499,87.056 293.005499,84.976 290.613499,84.976 C288.195499,84.976 287.363499,87.056 287.363499,89.266 C287.363499,91.372 288.325499,93.582 290.613499,93.582 C293.057499,93.582 293.785499,91.45 293.785499,89.24 Z M299.745071,89.292 C299.745071,85.002 302.475071,82.194 306.687071,82.194 C310.925071,82.194 313.655071,85.002 313.655071,89.292 C313.655071,93.556 310.925071,96.364 306.687071,96.364 C302.475071,96.364 299.745071,93.556 299.745071,89.292 Z M303.437071,89.292 C303.437071,91.424 304.191071,93.582 306.687071,93.582 C309.209071,93.582 309.963071,91.424 309.963071,89.292 C309.963071,87.134 309.209071,84.976 306.687071,84.976 C304.191071,84.976 303.437071,87.134 303.437071,89.292 Z M315.662642,89.292 C315.662642,85.002 318.392642,82.194 322.604642,82.194 C326.842642,82.194 329.572642,85.002 329.572642,89.292 C329.572642,93.556 326.842642,96.364 322.604642,96.364 C318.392642,96.364 315.662642,93.556 315.662642,89.292 Z M319.354642,89.292 C319.354642,91.424 320.108642,93.582 322.604642,93.582 C325.126642,93.582 325.880642,91.424 325.880642,89.292 C325.880642,87.134 325.126642,84.976 322.604642,84.976 C320.108642,84.976 319.354642,87.134 319.354642,89.292 Z M331.996213,96 L331.996213,82.558 L335.506213,82.558 L335.506213,85.054 L335.558213,85.054 C336.234213,83.364 338.054213,82.194 339.848213,82.194 C340.108213,82.194 340.420213,82.246 340.654213,82.324 L340.654213,85.756 C340.316213,85.678 339.770213,85.626 339.328213,85.626 C336.624213,85.626 335.688213,87.576 335.688213,89.942 L335.688213,96 L331.996213,96 Z M348.751356,91.632 L352.261356,91.632 C352.287356,93.244 353.639356,93.894 355.095356,93.894 C356.161356,93.894 357.513356,93.478 357.513356,92.178 C357.513356,91.06 355.979356,90.67 353.327356,90.098 C351.195356,89.63 349.063356,88.876 349.063356,86.51 C349.063356,83.078 352.027356,82.194 354.913356,82.194 C357.851356,82.194 360.555356,83.182 360.841356,86.484 L357.331356,86.484 C357.227356,85.054 356.135356,84.664 354.809356,84.664 C353.977356,84.664 352.755356,84.82 352.755356,85.912 C352.755356,87.238 354.835356,87.42 356.941356,87.914 C359.099356,88.408 361.205356,89.188 361.205356,91.684 C361.205356,95.22 358.137356,96.364 355.069356,96.364 C351.949356,96.364 348.907356,95.194 348.751356,91.632 Z M368.074927,78.528 L368.074927,82.558 L370.778927,82.558 L370.778927,85.028 L368.074927,85.028 L368.074927,91.684 C368.074927,92.932 368.386927,93.244 369.634927,93.244 C370.024927,93.244 370.388927,93.218 370.778927,93.14 L370.778927,96.026 C370.154927,96.13 369.348927,96.156 368.620927,96.156 C366.358927,96.156 364.382927,95.636 364.382927,92.958 L364.382927,85.028 L362.146927,85.028 L362.146927,82.558 L364.382927,82.558 L364.382927,78.528 L368.074927,78.528 Z M385.318498,90.176 L375.620498,90.176 C375.724498,92.516 376.868498,93.582 378.922498,93.582 C380.404498,93.582 381.600498,92.672 381.834498,91.84 L385.084498,91.84 C384.044498,95.012 381.834498,96.364 378.792498,96.364 C374.554498,96.364 371.928498,93.452 371.928498,89.292 C371.928498,85.262 374.710498,82.194 378.792498,82.194 C383.368498,82.194 385.578498,86.042 385.318498,90.176 Z M375.620498,87.836 L381.626498,87.836 C381.288498,85.964 380.482498,84.976 378.688498,84.976 C376.348498,84.976 375.672498,86.796 375.620498,87.836 Z M395.90607,90.8 L395.90607,89.422 C395.28207,89.968 393.98207,89.994 392.83807,90.202 C391.69407,90.436 390.65407,90.826 390.65407,92.178 C390.65407,93.556 391.72007,93.894 392.91607,93.894 C395.80207,93.894 395.90607,91.606 395.90607,90.8 Z M391.07007,86.692 L387.37807,86.692 C387.58607,83.234 390.68007,82.194 393.69607,82.194 C396.37407,82.194 399.59807,82.792 399.59807,86.016 L399.59807,93.01 C399.59807,94.232 399.72807,95.454 400.06607,96 L396.32207,96 C396.19207,95.584 396.08807,95.142 396.06207,94.7 C394.89207,95.922 393.17607,96.364 391.53807,96.364 C388.99007,96.364 386.96207,95.09 386.96207,92.334 C386.96207,89.292 389.25007,88.564 391.53807,88.252 C393.80007,87.914 395.90607,87.992 395.90607,86.484 C395.90607,84.898 394.81407,84.664 393.51407,84.664 C392.11007,84.664 391.20007,85.236 391.07007,86.692 Z M402.593641,96 L402.593641,77.436 L406.285641,77.436 L406.285641,96 L402.593641,96 Z M408.579212,91.632 L412.089212,91.632 C412.115212,93.244 413.467212,93.894 414.923212,93.894 C415.989212,93.894 417.341212,93.478 417.341212,92.178 C417.341212,91.06 415.807212,90.67 413.155212,90.098 C411.023212,89.63 408.891212,88.876 408.891212,86.51 C408.891212,83.078 411.855212,82.194 414.741212,82.194 C417.679212,82.194 420.383212,83.182 420.669212,86.484 L417.159212,86.484 C417.055212,85.054 415.963212,84.664 414.637212,84.664 C413.805212,84.664 412.583212,84.82 412.583212,85.912 C412.583212,87.238 414.663212,87.42 416.769212,87.914 C418.927212,88.408 421.033212,89.188 421.033212,91.684 C421.033212,95.22 417.965212,96.364 414.897212,96.364 C411.777212,96.364 408.735212,95.194 408.579212,91.632 Z M427.356784,77.436 L427.356784,82.428 L426.342784,90.436 L424.496784,90.436 L423.508784,82.428 L423.508784,77.436 L427.356784,77.436 Z M423.404784,96 L423.404784,91.996 L427.486784,91.996 L427.486784,96 L423.404784,96 Z" id="Hugesavingsonoutdoorsteals!" fill="#FFFFFF"></path>
            </g>
        </g>
    </g>
</svg>