<?xml version="1.0" encoding="UTF-8"?>
<svg width="1680px" height="500px" viewBox="0 0 1680 500" version="1.1" xmlns="http://www.w3.org/2000/svg" xmlns:xlink="http://www.w3.org/1999/xlink">
    <!-- Generator: Sketch 55.2 (78181) - https://sketchapp.com -->
    <title>1680 copy</title>
    <desc>Created with Sketch.</desc>
    <g id="1680-copy" stroke="none" stroke-width="1" fill="none" fill-rule="evenodd">
        <g id="SVG" transform="translate(675.076000, 16.000000)">
            <g id="1680-Button" transform="translate(71.924000, 391.000000)">
                <rect id="Rectangle" fill="#FFE586" x="0" y="0" width="189" height="49" rx="2.295"></rect>
                <path d="M42.3,25.678055 L45.0467901,25.678055 C45.0467901,28.1680124 46.8267102,29.1413594 49.0241423,29.1413594 C51.4413176,29.1413594 52.3422648,27.9190166 52.3422648,26.6966739 C52.3422648,25.4516952 51.6830352,24.9537037 51.0457798,24.704708 C49.9470638,24.2746244 48.5187329,23.9803567 46.3652494,23.3691853 C43.6843822,22.6221981 42.8933067,20.9471359 42.8933067,19.2720736 C42.8933067,16.0351289 45.7939171,14.5185185 48.6286045,14.5185185 C51.9027784,14.5185185 54.6495685,16.3067607 54.6495685,19.6795212 L51.9027784,19.6795212 C51.7709324,17.5970113 50.4085245,16.8273881 48.5187329,16.8273881 C47.2442223,16.8273881 45.6400968,17.3027436 45.6400968,18.9325339 C45.6400968,20.0643328 46.3872237,20.6981401 47.5079141,21.0150438 C47.7496317,21.0829517 51.2215744,22.0110268 52.0346243,22.2600225 C54.1002105,22.8938298 55.0890549,24.704708 55.0890549,26.3797702 C55.0890549,30.0015265 51.9687013,31.450229 48.8483477,31.450229 C45.2665334,31.450229 42.365923,29.6846228 42.3,25.678055 Z M57.1326668,31.0654174 L57.1326668,14.9033301 L59.6377394,14.9033301 L59.6377394,20.9018639 L59.6816881,20.9018639 C60.2969691,19.837973 61.593454,19.0457138 63.0877079,19.0457138 C65.5488318,19.0457138 67.1090086,20.4038724 67.1090086,23.0296457 L67.1090086,31.0654174 L64.603936,31.0654174 L64.603936,23.708725 C64.5599874,21.8752109 63.8568091,21.0829517 62.3845296,21.0829517 C60.7144812,21.0829517 59.6377394,22.4411103 59.6377394,24.1614445 L59.6377394,31.0654174 L57.1326668,31.0654174 Z M74.9538413,29.3450832 C77.1952221,29.3450832 78.1840665,27.2399373 78.1840665,25.2026994 C78.1840665,23.1880975 77.1952221,21.0829517 74.9538413,21.0829517 C72.7124605,21.0829517 71.7236161,23.1880975 71.7236161,25.2026994 C71.7236161,27.2399373 72.7124605,29.3450832 74.9538413,29.3450832 Z M74.9538413,31.382321 C71.306104,31.382321 69.2185435,28.8018197 69.2185435,25.2026994 C69.2185435,21.6262152 71.306104,19.0457138 74.9538413,19.0457138 C78.6015786,19.0457138 80.6891391,21.6262152 80.6891391,25.2026994 C80.6891391,28.8018197 78.6015786,31.382321 74.9538413,31.382321 Z M91.5884024,25.2253354 C91.5884024,23.0975536 90.5116607,21.0829517 88.4460745,21.0829517 C86.3365397,21.0829517 85.2597979,22.735378 85.2597979,25.2253354 C85.2597979,27.579477 86.424437,29.3450832 88.4460745,29.3450832 C90.7314039,29.3450832 91.5884024,27.2625733 91.5884024,25.2253354 Z M82.8426226,35.3888889 L82.8426226,19.3626175 L85.2158493,19.3626175 L85.2158493,20.9471359 L85.2597979,20.9471359 C85.9629762,19.6116132 87.3253841,19.0457138 88.7756893,19.0457138 C92.3575037,19.0457138 94.0934751,21.8525749 94.0934751,25.2706074 C94.0934751,28.4170081 92.5552726,31.382321 89.1932014,31.382321 C87.7428962,31.382321 86.1827194,30.8390576 85.3916439,29.5488069 L85.3476952,29.5488069 L85.3476952,35.3888889 L82.8426226,35.3888889 Z M102.553589,31.0654174 L102.553589,14.9033301 L105.454199,14.9033301 L112.617828,26.8098538 L112.661776,26.8098538 L112.661776,14.9033301 L115.276721,14.9033301 L115.276721,31.0654174 L112.37611,31.0654174 L105.234456,19.1815297 L105.168533,19.1815297 L105.168533,31.0654174 L102.553589,31.0654174 Z M123.385245,29.3450832 C125.626626,29.3450832 126.61547,27.2399373 126.61547,25.2026994 C126.61547,23.1880975 125.626626,21.0829517 123.385245,21.0829517 C121.143864,21.0829517 120.15502,23.1880975 120.15502,25.2026994 C120.15502,27.2399373 121.143864,29.3450832 123.385245,29.3450832 Z M123.385245,31.382321 C119.737508,31.382321 117.649947,28.8018197 117.649947,25.2026994 C117.649947,21.6262152 119.737508,19.0457138 123.385245,19.0457138 C127.032983,19.0457138 129.120543,21.6262152 129.120543,25.2026994 C129.120543,28.8018197 127.032983,31.382321 123.385245,31.382321 Z M133.691202,31.0654174 L130.17531,19.3626175 L132.834203,19.3626175 L135.05361,28.1001044 L135.097558,28.1001044 L137.229068,19.3626175 L139.756115,19.3626175 L141.799726,28.1001044 L141.843675,28.1001044 L144.150979,19.3626175 L146.7,19.3626175 L143.14016,31.0654174 L140.569164,31.0654174 L138.45963,22.3732024 L138.415681,22.3732024 L136.32812,31.0654174 L133.691202,31.0654174 Z" id="ShopNow" fill="#000000" fill-rule="nonzero"></path>
            </g>
            <path d="M86.146325,249 L244.146325,249" id="Line" stroke="#FFFFFF" stroke-width="2" stroke-linecap="square"></path>
            <g id="title" transform="translate(0.924000, 0.000000)">
                <rect id="Rectangle" stroke="#FFFFFF" stroke-width="2" x="1" y="1" width="327" height="468"></rect>
                <path d="M117.034715,57.4351296 C117.034715,48.906288 113.128984,39.8991936 103.563928,39.8991936 C92.484405,39.8991936 89.1366354,48.1092 89.1366354,57.4351296 C89.1366354,65.9639712 92.882949,74.9710656 103.563928,74.9710656 C113.128984,74.9710656 117.034715,65.9639712 117.034715,57.4351296 Z M84.114981,93.2243808 L84.114981,36.8702592 L88.7380914,36.8702592 L88.7380914,44.6817216 L88.897509,44.6817216 C91.2090642,39.1021056 96.9480978,35.6746272 103.563928,35.6746272 C116.07821,35.6746272 122.05637,45.7976448 122.05637,57.4351296 C122.05637,69.0726144 116.07821,79.195632 103.563928,79.195632 C97.4263506,79.195632 91.4481906,76.0869888 89.296053,70.1885376 L89.1366354,70.1885376 L89.1366354,93.2243808 L84.114981,93.2243808 Z M156.171736,62.05824 L156.171736,55.5221184 L156.012319,55.5221184 C155.374648,56.7177504 153.142802,57.1162944 151.787752,57.3554208 C143.258911,58.869888 132.65764,58.7901792 132.65764,66.840768 C132.65764,71.8624224 137.121333,74.9710656 141.824152,74.9710656 C149.476197,74.9710656 156.251445,70.1088288 156.171736,62.05824 Z M134.411234,49.4642496 L129.389579,49.4642496 C129.867832,39.8194848 136.64308,35.6746272 146.048719,35.6746272 C153.302219,35.6746272 161.193391,37.9064736 161.193391,48.906288 L161.193391,70.7464992 C161.193391,72.6595104 162.149896,73.7754336 164.142616,73.7754336 C164.700578,73.7754336 165.338248,73.616016 165.736792,73.4565984 L165.736792,77.6811648 C164.620869,77.9202912 163.823781,78 162.468731,78 C157.367368,78 156.57028,75.1304832 156.57028,70.826208 L156.410863,70.826208 C152.903675,76.1666976 149.316779,79.195632 141.425608,79.195632 C133.853272,79.195632 127.635986,75.4493184 127.635986,67.1596032 C127.635986,55.6018272 138.874927,55.2032832 149.715323,53.9279424 C153.860181,53.4496896 156.171736,52.891728 156.171736,48.3483264 C156.171736,41.5730784 151.309499,39.8991936 145.411048,39.8991936 C139.193762,39.8991936 134.570651,42.7687104 134.411234,49.4642496 Z M179.207579,24.5153952 L179.207579,36.8702592 L187.577003,36.8702592 L187.577003,41.0948256 L179.207579,41.0948256 L179.207579,68.833488 C179.207579,72.1015488 179.685832,74.01456 183.272728,74.2536864 C184.707487,74.2536864 186.142245,74.1739776 187.577003,74.01456 L187.577003,78.3188352 C186.062536,78.3188352 184.627778,78.4782528 183.113311,78.4782528 C176.417771,78.4782528 174.106216,76.2464064 174.185925,69.232032 L174.185925,41.0948256 L167.012133,41.0948256 L167.012133,36.8702592 L174.185925,36.8702592 L174.185925,24.5153952 L179.207579,24.5153952 Z M194.910213,78 L194.910213,36.8702592 L199.931867,36.8702592 L199.931867,78 L194.910213,78 Z M194.910213,29.1385056 L194.910213,21.0879168 L199.931867,21.0879168 L199.931867,29.1385056 L194.910213,29.1385056 Z M226.953151,35.6746272 C239.547141,35.6746272 246.402098,45.6382272 246.402098,57.4351296 C246.402098,69.232032 239.547141,79.195632 226.953151,79.195632 C214.35916,79.195632 207.504203,69.232032 207.504203,57.4351296 C207.504203,45.6382272 214.35916,35.6746272 226.953151,35.6746272 Z M226.953151,39.8991936 C217.308386,39.8991936 212.525858,48.6671616 212.525858,57.4351296 C212.525858,66.2030976 217.308386,74.9710656 226.953151,74.9710656 C236.597915,74.9710656 241.380443,66.2030976 241.380443,57.4351296 C241.380443,48.6671616 236.597915,39.8991936 226.953151,39.8991936 Z" id="patio" fill="#FFFFFF" fill-rule="nonzero"></path>
                <path d="M68.3258373,132.198378 C68.5622794,134.195 69.0745628,135.613631 69.8627031,136.454314 C71.2550843,137.951781 73.8296372,138.700503 77.5864391,138.700503 C79.7932319,138.700503 81.5468177,138.372116 82.8472491,137.715332 C84.1476806,137.058549 84.7978865,136.073388 84.7978865,134.759821 C84.7978865,133.498797 84.2724676,132.539907 83.2216139,131.883123 C82.1707602,131.22634 78.2695244,130.096689 71.5177894,128.494137 C66.6575911,127.285655 63.2292323,125.775076 61.2326103,123.962353 C59.2359883,122.175902 58.2376923,119.601349 58.2376923,116.238617 C58.2376923,112.271645 59.794246,108.862989 62.9074,106.012548 C66.0205541,103.162108 70.4012347,101.736909 76.0495733,101.736909 C81.4089271,101.736909 85.7764723,102.80745 89.1523397,104.948564 C92.5282072,107.089679 94.4656897,110.787315 94.9648452,116.041583 L83.7339025,116.041583 C83.5762744,114.596659 83.1690747,113.453873 82.5122912,112.61319 C81.2775381,111.089452 79.1758622,110.327595 76.2072006,110.327595 C73.7639657,110.327595 72.0235154,110.708524 70.9857974,111.470392 C69.9480794,112.232261 69.4292281,113.125474 69.4292281,114.150056 C69.4292281,115.437352 69.980918,116.36997 71.0843144,116.94794 C72.1877108,117.552181 76.0889466,118.589883 82.7881389,120.061078 C87.2542671,121.111932 90.603813,122.701324 92.8368771,124.829303 C95.0436698,126.983553 96.1470497,129.676325 96.1470497,132.907701 C96.1470497,137.163658 94.564225,140.637991 91.3985283,143.330804 C88.2328315,146.023616 83.3398674,147.370002 76.7194892,147.370002 C69.9677542,147.370002 64.9828418,145.944803 61.7646023,143.094363 C58.5463629,140.243922 56.9372673,136.611963 56.9372673,132.198378 L68.3258373,132.198378 Z M115.653424,102.95852 L115.653424,128.848798 C115.653424,131.292033 115.942404,133.131 116.520374,134.365753 C117.544956,136.546274 119.554684,137.636519 122.549617,137.636519 C126.385233,137.636519 129.012327,136.086533 130.43098,132.986514 C131.166578,131.305148 131.534371,129.085253 131.534371,126.326762 L131.534371,102.95852 L142.922941,102.95852 L142.922941,145.91195 L132.007253,145.91195 L132.007253,139.8433 C131.902167,139.974657 131.639458,140.368721 131.219116,141.025505 C130.798775,141.682288 130.299627,142.260249 129.721657,142.759405 C127.961477,144.335685 126.260433,145.412794 124.618475,145.990764 C122.976516,146.568733 121.052169,146.857714 118.845376,146.857714 C112.487711,146.857714 108.205547,144.572141 105.998754,140.000928 C104.764001,137.478879 104.146633,133.76154 104.146633,128.848798 L104.146633,102.95852 L115.653424,102.95852 Z M183.354334,124.435235 C183.354334,121.125046 182.599045,118.195835 181.088442,115.647515 C179.57784,113.099195 177.128074,111.825054 173.739071,111.825054 C169.667013,111.825054 166.869157,113.755969 165.345419,117.617856 C164.557279,119.667021 164.163215,122.267844 164.163215,125.420405 C164.163215,130.411961 165.489898,133.919132 168.143303,135.942025 C169.719584,137.124236 171.584821,137.715332 173.739071,137.715332 C176.865361,137.715332 179.249449,136.506869 180.891408,134.089905 C182.533367,131.672942 183.354334,128.45475 183.354334,124.435235 Z M176.97043,102.012757 C181.988256,102.012757 186.237582,103.864858 189.718535,107.569118 C193.199488,111.273377 194.939938,116.711463 194.939938,123.88354 C194.939938,131.449686 193.238894,137.216159 189.836756,141.183132 C186.434617,145.150105 182.053936,147.133561 176.694582,147.133561 C173.279308,147.133561 170.442045,146.279755 168.18271,144.572118 C166.947957,143.62635 165.739493,142.247125 164.557283,140.434403 L164.557283,162.817474 L153.444561,162.817474 L153.444561,102.95852 L164.202622,102.95852 L164.202622,109.303018 C165.411103,107.437752 166.69838,105.966579 168.06449,104.889454 C170.560267,102.971646 173.528884,102.012757 176.97043,102.012757 Z M220.002674,111.076324 C217.401811,111.076324 215.385515,111.890724 213.953727,113.519547 C212.521939,115.14837 211.622159,117.35513 211.25436,120.139892 L228.71158,120.139892 C228.527681,117.17123 227.627901,114.918497 226.012213,113.381623 C224.396526,111.84475 222.393366,111.076324 220.002674,111.076324 Z M220.002674,101.815722 C223.575576,101.815722 226.793767,102.485632 229.657344,103.82547 C232.52092,105.165309 234.885305,107.28012 236.750571,110.169968 C238.431937,112.718288 239.522181,115.673769 240.021336,119.036501 C240.310321,121.006852 240.42854,123.844114 240.375998,127.548374 L210.978513,127.548374 C211.136141,131.856874 212.489095,134.878033 215.037415,136.611941 C216.587424,137.689066 218.452661,138.227621 220.633183,138.227621 C222.945061,138.227621 224.823434,137.570847 226.268357,136.25728 C227.056498,135.547954 227.752678,134.562793 228.356919,133.301769 L239.824302,133.301769 C239.535318,135.850089 238.208635,138.437777 235.844214,141.064912 C232.166226,145.242055 227.01712,147.330595 220.396742,147.330595 C214.932303,147.330595 210.111584,145.570442 205.93444,142.050082 C201.757297,138.529722 199.668756,132.802655 199.668756,124.86871 C199.668756,117.43392 201.553697,111.733124 205.323635,107.766152 C209.093572,103.799179 213.986536,101.815722 220.002674,101.815722 Z M271.270942,101.933943 C271.481113,101.933943 271.658441,101.940511 271.802934,101.953646 C271.947426,101.966782 272.269245,101.986485 272.768401,102.012757 L272.768401,113.519547 C272.059075,113.440733 271.428572,113.388191 270.876874,113.36192 C270.325175,113.335648 269.878569,113.322513 269.537042,113.322513 C265.018371,113.322513 261.984076,114.793686 260.434067,117.736076 C259.567113,119.391171 259.133642,121.939453 259.133642,125.380999 L259.133642,145.91195 L247.823886,145.91195 L247.823886,102.95852 L258.54254,102.95852 L258.54254,110.445815 C260.276449,107.582239 261.787028,105.625053 263.074324,104.5742 C265.176031,102.81402 267.90821,101.933943 271.270942,101.933943 Z" id="super" fill="#FFE586" fill-rule="nonzero"></path>
                <path d="M99.6739597,203.811753 C99.9104018,205.808375 100.422685,207.227006 101.210826,208.067689 C102.603207,209.565156 105.17776,210.313878 108.934562,210.313878 C111.141354,210.313878 112.89494,209.985491 114.195372,209.328707 C115.495803,208.671924 116.146009,207.686763 116.146009,206.373196 C116.146009,205.112172 115.62059,204.153282 114.569736,203.496498 C113.518883,202.839715 109.617647,201.710064 102.865912,200.107512 C98.0057135,198.89903 94.5773548,197.388451 92.5807328,195.575728 C90.5841108,193.789277 89.5858147,191.214724 89.5858147,187.851992 C89.5858147,183.88502 91.1423684,180.476364 94.2555225,177.625923 C97.3686765,174.775483 101.749357,173.350284 107.397696,173.350284 C112.75705,173.350284 117.124595,174.420825 120.500462,176.561939 C123.87633,178.703054 125.813812,182.40069 126.312968,187.654958 L115.082025,187.654958 C114.924397,186.210034 114.517197,185.067248 113.860414,184.226565 C112.625661,182.702827 110.523985,181.94097 107.555323,181.94097 C105.112088,181.94097 103.371638,182.321899 102.33392,183.083767 C101.296202,183.845636 100.777351,184.738849 100.777351,185.763431 C100.777351,187.050727 101.32904,187.983345 102.432437,188.561315 C103.535833,189.165556 107.437069,190.203258 114.136261,191.674453 C118.60239,192.725307 121.951935,194.314699 124.185,196.442678 C126.391792,198.596928 127.495172,201.2897 127.495172,204.521076 C127.495172,208.777033 125.912347,212.251366 122.746651,214.944179 C119.580954,217.636991 114.68799,218.983377 108.067612,218.983377 C101.315877,218.983377 96.3309642,217.558178 93.1127248,214.707738 C89.8944854,211.857297 88.2853898,208.225338 88.2853898,203.811753 L99.6739597,203.811753 Z M159.493507,196.639712 C158.784181,197.086325 158.068297,197.447551 157.345836,197.7234 C156.623374,197.999249 155.631645,198.255391 154.370621,198.491833 L151.848585,198.964714 C149.484164,199.385056 147.789688,199.897339 146.765105,200.50158 C145.031197,201.526163 144.164255,203.115555 144.164255,205.269805 C144.164255,207.187613 144.696242,208.573406 145.760232,209.427224 C146.824221,210.281043 148.118065,210.707946 149.641803,210.707946 C152.058766,210.707946 154.285229,209.99863 156.321258,208.579978 C158.357287,207.161325 159.414693,204.573637 159.493507,200.816835 L159.493507,196.639712 Z M152.676128,191.398606 C154.751564,191.135892 156.235872,190.807505 157.129098,190.413435 C158.73165,189.73038 159.532914,188.666407 159.532914,187.221483 C159.532914,185.461303 158.922114,184.246272 157.700497,183.576353 C156.478879,182.906433 154.685887,182.571479 152.321466,182.571479 C149.668061,182.571479 147.789688,183.228253 146.686292,184.54182 C145.898151,185.513859 145.372732,186.827407 145.110019,188.482501 L134.273145,188.482501 C134.509587,184.725699 135.560425,181.638863 137.42569,179.221899 C140.394352,175.438826 145.490915,173.547318 152.715535,173.547318 C157.418105,173.547318 161.595186,174.479937 165.246902,176.345202 C168.898619,178.210467 170.72445,181.730774 170.72445,186.906229 L170.72445,206.609637 C170.72445,207.975747 170.750721,209.630816 170.803263,211.574896 C170.882077,213.046091 171.10538,214.044387 171.473179,214.569814 C171.840978,215.095241 172.392668,215.528711 173.128266,215.870239 L173.128266,217.525325 L160.912152,217.525325 C160.570625,216.658371 160.334186,215.843971 160.20283,215.082102 C160.071473,214.320233 159.966389,213.453292 159.887575,212.481252 C158.337566,214.162618 156.551142,215.594385 154.528248,216.776595 C152.111285,218.168977 149.379106,218.865157 146.33163,218.865157 C142.443472,218.865157 139.231848,217.755209 136.696664,215.535281 C134.161479,213.315352 132.893906,210.169406 132.893906,206.097348 C132.893906,200.816808 134.929904,196.994385 139.001963,194.629965 C141.235027,193.342669 144.518895,192.423186 148.853667,191.871488 L152.676128,191.398606 Z M192.161758,217.525325 L180.930815,217.525325 L180.930815,159.439678 L192.161758,159.439678 L192.161758,217.525325 Z M220.061784,182.689699 C217.460921,182.689699 215.444626,183.504099 214.012838,185.132922 C212.581049,186.761745 211.681269,188.968505 211.313471,191.753267 L228.77069,191.753267 C228.586791,188.784605 227.687011,186.531872 226.071323,184.994998 C224.455636,183.458125 222.452476,182.689699 220.061784,182.689699 Z M220.061784,173.429097 C223.634686,173.429097 226.852878,174.099007 229.716454,175.438845 C232.58003,176.778684 234.944416,178.893495 236.809681,181.783343 C238.491047,184.331663 239.581291,187.287144 240.080447,190.649876 C240.369431,192.620227 240.487651,195.457489 240.435108,199.161749 L211.037623,199.161749 C211.195251,203.470249 212.548205,206.491408 215.096525,208.225316 C216.646534,209.302441 218.511771,209.840996 220.692293,209.840996 C223.004171,209.840996 224.882544,209.184222 226.327468,207.870655 C227.115608,207.161329 227.811788,206.176168 228.416029,204.915144 L239.883413,204.915144 C239.594428,207.463464 238.267745,210.051152 235.903324,212.678287 C232.225336,216.85543 227.07623,218.94397 220.455852,218.94397 C214.991413,218.94397 210.170694,217.183817 205.99355,213.663457 C201.816407,210.143097 199.727867,204.41603 199.727867,196.482085 C199.727867,189.047295 201.612807,183.346499 205.382745,179.379527 C209.152682,175.412554 214.045646,173.429097 220.061784,173.429097 Z" id="sale" fill="#FFE586" fill-rule="nonzero"></path>
                <path d="M62.8162154,311 L62.8162154,292.436 L66.8982154,292.436 L66.8982154,299.56 L74.4122154,299.56 L74.4122154,292.436 L78.4942154,292.436 L78.4942154,311 L74.4122154,311 L74.4122154,302.992 L66.8982154,302.992 L66.8982154,311 L62.8162154,311 Z M94.3337867,297.558 L94.3337867,311 L90.8237867,311 L90.8237867,309.128 L90.7457867,309.128 C89.8097867,310.636 88.1977867,311.364 86.6377867,311.364 C82.7117867,311.364 81.7237867,309.154 81.7237867,305.826 L81.7237867,297.558 L85.4157867,297.558 L85.4157867,305.15 C85.4157867,307.36 86.0657867,308.452 87.7817867,308.452 C89.7837867,308.452 90.6417867,307.334 90.6417867,304.604 L90.6417867,297.558 L94.3337867,297.558 Z M110.095358,297.558 L110.095358,310.142 C110.095358,312.352 109.315358,316.096 103.127358,316.096 C100.475358,316.096 97.381358,314.848 97.199358,311.78 L100.865358,311.78 C101.203358,313.158 102.321358,313.626 103.621358,313.626 C105.675358,313.626 106.611358,312.222 106.585358,310.298 L106.585358,308.53 L106.533358,308.53 C105.727358,309.934 104.115358,310.61 102.503358,310.61 C98.473358,310.61 96.757358,307.542 96.757358,303.85 C96.757358,300.366 98.759358,297.194 102.529358,297.194 C104.297358,297.194 105.649358,297.792 106.533358,299.352 L106.585358,299.352 L106.585358,297.558 L110.095358,297.558 Z M103.439358,307.828 C105.545358,307.828 106.585358,306.034 106.585358,304.11 C106.585358,301.926 105.831358,299.976 103.439358,299.976 C101.359358,299.976 100.449358,301.796 100.449358,303.798 C100.449358,305.722 101.177358,307.828 103.439358,307.828 Z M125.830929,305.176 L116.132929,305.176 C116.236929,307.516 117.380929,308.582 119.434929,308.582 C120.916929,308.582 122.112929,307.672 122.346929,306.84 L125.596929,306.84 C124.556929,310.012 122.346929,311.364 119.304929,311.364 C115.066929,311.364 112.440929,308.452 112.440929,304.292 C112.440929,300.262 115.222929,297.194 119.304929,297.194 C123.880929,297.194 126.090929,301.042 125.830929,305.176 Z M116.132929,302.836 L122.138929,302.836 C121.800929,300.964 120.994929,299.976 119.200929,299.976 C116.860929,299.976 116.184929,301.796 116.132929,302.836 Z M134.656072,306.632 L138.166072,306.632 C138.192072,308.244 139.544072,308.894 141.000072,308.894 C142.066072,308.894 143.418072,308.478 143.418072,307.178 C143.418072,306.06 141.884072,305.67 139.232072,305.098 C137.100072,304.63 134.968072,303.876 134.968072,301.51 C134.968072,298.078 137.932072,297.194 140.818072,297.194 C143.756072,297.194 146.460072,298.182 146.746072,301.484 L143.236072,301.484 C143.132072,300.054 142.040072,299.664 140.714072,299.664 C139.882072,299.664 138.660072,299.82 138.660072,300.912 C138.660072,302.238 140.740072,302.42 142.846072,302.914 C145.004072,303.408 147.110072,304.188 147.110072,306.684 C147.110072,310.22 144.042072,311.364 140.974072,311.364 C137.854072,311.364 134.812072,310.194 134.656072,306.632 Z M157.671643,305.8 L157.671643,304.422 C157.047643,304.968 155.747643,304.994 154.603643,305.202 C153.459643,305.436 152.419643,305.826 152.419643,307.178 C152.419643,308.556 153.485643,308.894 154.681643,308.894 C157.567643,308.894 157.671643,306.606 157.671643,305.8 Z M152.835643,301.692 L149.143643,301.692 C149.351643,298.234 152.445643,297.194 155.461643,297.194 C158.139643,297.194 161.363643,297.792 161.363643,301.016 L161.363643,308.01 C161.363643,309.232 161.493643,310.454 161.831643,311 L158.087643,311 C157.957643,310.584 157.853643,310.142 157.827643,309.7 C156.657643,310.922 154.941643,311.364 153.303643,311.364 C150.755643,311.364 148.727643,310.09 148.727643,307.334 C148.727643,304.292 151.015643,303.564 153.303643,303.252 C155.565643,302.914 157.671643,302.992 157.671643,301.484 C157.671643,299.898 156.579643,299.664 155.279643,299.664 C153.875643,299.664 152.965643,300.236 152.835643,301.692 Z M176.241214,297.558 L171.691214,311 L167.583214,311 L162.981214,297.558 L166.855214,297.558 L169.689214,306.736 L169.741214,306.736 L172.575214,297.558 L176.241214,297.558 Z M177.910786,311 L177.910786,297.558 L181.602786,297.558 L181.602786,311 L177.910786,311 Z M181.602786,292.436 L181.602786,295.478 L177.910786,295.478 L177.910786,292.436 L181.602786,292.436 Z M184.546357,311 L184.546357,297.558 L188.056357,297.558 L188.056357,299.43 L188.134357,299.43 C189.070357,297.922 190.682357,297.194 192.242357,297.194 C196.168357,297.194 197.156357,299.404 197.156357,302.732 L197.156357,311 L193.464357,311 L193.464357,303.408 C193.464357,301.198 192.814357,300.106 191.098357,300.106 C189.096357,300.106 188.238357,301.224 188.238357,303.954 L188.238357,311 L184.546357,311 Z M212.917928,297.558 L212.917928,310.142 C212.917928,312.352 212.137928,316.096 205.949928,316.096 C203.297928,316.096 200.203928,314.848 200.021928,311.78 L203.687928,311.78 C204.025928,313.158 205.143928,313.626 206.443928,313.626 C208.497928,313.626 209.433928,312.222 209.407928,310.298 L209.407928,308.53 L209.355928,308.53 C208.549928,309.934 206.937928,310.61 205.325928,310.61 C201.295928,310.61 199.579928,307.542 199.579928,303.85 C199.579928,300.366 201.581928,297.194 205.351928,297.194 C207.119928,297.194 208.471928,297.792 209.355928,299.352 L209.407928,299.352 L209.407928,297.558 L212.917928,297.558 Z M206.261928,307.828 C208.367928,307.828 209.407928,306.034 209.407928,304.11 C209.407928,301.926 208.653928,299.976 206.261928,299.976 C204.181928,299.976 203.271928,301.796 203.271928,303.798 C203.271928,305.722 203.999928,307.828 206.261928,307.828 Z M215.263499,306.632 L218.773499,306.632 C218.799499,308.244 220.151499,308.894 221.607499,308.894 C222.673499,308.894 224.025499,308.478 224.025499,307.178 C224.025499,306.06 222.491499,305.67 219.839499,305.098 C217.707499,304.63 215.575499,303.876 215.575499,301.51 C215.575499,298.078 218.539499,297.194 221.425499,297.194 C224.363499,297.194 227.067499,298.182 227.353499,301.484 L223.843499,301.484 C223.739499,300.054 222.647499,299.664 221.321499,299.664 C220.489499,299.664 219.267499,299.82 219.267499,300.912 C219.267499,302.238 221.347499,302.42 223.453499,302.914 C225.611499,303.408 227.717499,304.188 227.717499,306.684 C227.717499,310.22 224.649499,311.364 221.581499,311.364 C218.461499,311.364 215.419499,310.194 215.263499,306.632 Z M236.750642,304.292 C236.750642,300.002 239.480642,297.194 243.692642,297.194 C247.930642,297.194 250.660642,300.002 250.660642,304.292 C250.660642,308.556 247.930642,311.364 243.692642,311.364 C239.480642,311.364 236.750642,308.556 236.750642,304.292 Z M240.442642,304.292 C240.442642,306.424 241.196642,308.582 243.692642,308.582 C246.214642,308.582 246.968642,306.424 246.968642,304.292 C246.968642,302.134 246.214642,299.976 243.692642,299.976 C241.196642,299.976 240.442642,302.134 240.442642,304.292 Z M253.084213,311 L253.084213,297.558 L256.594213,297.558 L256.594213,299.43 L256.672213,299.43 C257.608213,297.922 259.220213,297.194 260.780213,297.194 C264.706213,297.194 265.694213,299.404 265.694213,302.732 L265.694213,311 L262.002213,311 L262.002213,303.408 C262.002213,301.198 261.352213,300.106 259.636213,300.106 C257.634213,300.106 256.776213,301.224 256.776213,303.954 L256.776213,311 L253.084213,311 Z M71.6692154,335.292 C71.6692154,331.002 74.3992154,328.194 78.6112154,328.194 C82.8492154,328.194 85.5792154,331.002 85.5792154,335.292 C85.5792154,339.556 82.8492154,342.364 78.6112154,342.364 C74.3992154,342.364 71.6692154,339.556 71.6692154,335.292 Z M75.3612154,335.292 C75.3612154,337.424 76.1152154,339.582 78.6112154,339.582 C81.1332154,339.582 81.8872154,337.424 81.8872154,335.292 C81.8872154,333.134 81.1332154,330.976 78.6112154,330.976 C76.1152154,330.976 75.3612154,333.134 75.3612154,335.292 Z M100.612787,328.558 L100.612787,342 L97.1027867,342 L97.1027867,340.128 L97.0247867,340.128 C96.0887867,341.636 94.4767867,342.364 92.9167867,342.364 C88.9907867,342.364 88.0027867,340.154 88.0027867,336.826 L88.0027867,328.558 L91.6947867,328.558 L91.6947867,336.15 C91.6947867,338.36 92.3447867,339.452 94.0607867,339.452 C96.0627867,339.452 96.9207867,338.334 96.9207867,335.604 L96.9207867,328.558 L100.612787,328.558 Z M108.132358,324.528 L108.132358,328.558 L110.836358,328.558 L110.836358,331.028 L108.132358,331.028 L108.132358,337.684 C108.132358,338.932 108.444358,339.244 109.692358,339.244 C110.082358,339.244 110.446358,339.218 110.836358,339.14 L110.836358,342.026 C110.212358,342.13 109.406358,342.156 108.678358,342.156 C106.416358,342.156 104.440358,341.636 104.440358,338.958 L104.440358,331.028 L102.204358,331.028 L102.204358,328.558 L104.440358,328.558 L104.440358,324.528 L108.132358,324.528 Z M122.229929,342 L122.229929,340.284 L122.177929,340.284 C121.319929,341.74 119.811929,342.364 118.095929,342.364 C114.039929,342.364 112.063929,338.88 112.063929,335.162 C112.063929,331.548 114.065929,328.194 118.017929,328.194 C119.603929,328.194 121.163929,328.87 121.995929,330.196 L122.047929,330.196 L122.047929,323.436 L125.739929,323.436 L125.739929,342 L122.229929,342 Z M122.177929,335.24 C122.177929,333.056 121.397929,330.976 119.005929,330.976 C116.587929,330.976 115.755929,333.056 115.755929,335.266 C115.755929,337.372 116.717929,339.582 119.005929,339.582 C121.449929,339.582 122.177929,337.45 122.177929,335.24 Z M128.137501,335.292 C128.137501,331.002 130.867501,328.194 135.079501,328.194 C139.317501,328.194 142.047501,331.002 142.047501,335.292 C142.047501,339.556 139.317501,342.364 135.079501,342.364 C130.867501,342.364 128.137501,339.556 128.137501,335.292 Z M131.829501,335.292 C131.829501,337.424 132.583501,339.582 135.079501,339.582 C137.601501,339.582 138.355501,337.424 138.355501,335.292 C138.355501,333.134 137.601501,330.976 135.079501,330.976 C132.583501,330.976 131.829501,333.134 131.829501,335.292 Z M144.055072,335.292 C144.055072,331.002 146.785072,328.194 150.997072,328.194 C155.235072,328.194 157.965072,331.002 157.965072,335.292 C157.965072,339.556 155.235072,342.364 150.997072,342.364 C146.785072,342.364 144.055072,339.556 144.055072,335.292 Z M147.747072,335.292 C147.747072,337.424 148.501072,339.582 150.997072,339.582 C153.519072,339.582 154.273072,337.424 154.273072,335.292 C154.273072,333.134 153.519072,330.976 150.997072,330.976 C148.501072,330.976 147.747072,333.134 147.747072,335.292 Z M160.388643,342 L160.388643,328.558 L163.898643,328.558 L163.898643,331.054 L163.950643,331.054 C164.626643,329.364 166.446643,328.194 168.240643,328.194 C168.500643,328.194 168.812643,328.246 169.046643,328.324 L169.046643,331.756 C168.708643,331.678 168.162643,331.626 167.720643,331.626 C165.016643,331.626 164.080643,333.576 164.080643,335.942 L164.080643,342 L160.388643,342 Z M177.143786,337.632 L180.653786,337.632 C180.679786,339.244 182.031786,339.894 183.487786,339.894 C184.553786,339.894 185.905786,339.478 185.905786,338.178 C185.905786,337.06 184.371786,336.67 181.719786,336.098 C179.587786,335.63 177.455786,334.876 177.455786,332.51 C177.455786,329.078 180.419786,328.194 183.305786,328.194 C186.243786,328.194 188.947786,329.182 189.233786,332.484 L185.723786,332.484 C185.619786,331.054 184.527786,330.664 183.201786,330.664 C182.369786,330.664 181.147786,330.82 181.147786,331.912 C181.147786,333.238 183.227786,333.42 185.333786,333.914 C187.491786,334.408 189.597786,335.188 189.597786,337.684 C189.597786,341.22 186.529786,342.364 183.461786,342.364 C180.341786,342.364 177.299786,341.194 177.143786,337.632 Z M196.467357,324.528 L196.467357,328.558 L199.171357,328.558 L199.171357,331.028 L196.467357,331.028 L196.467357,337.684 C196.467357,338.932 196.779357,339.244 198.027357,339.244 C198.417357,339.244 198.781357,339.218 199.171357,339.14 L199.171357,342.026 C198.547357,342.13 197.741357,342.156 197.013357,342.156 C194.751357,342.156 192.775357,341.636 192.775357,338.958 L192.775357,331.028 L190.539357,331.028 L190.539357,328.558 L192.775357,328.558 L192.775357,324.528 L196.467357,324.528 Z M213.710928,336.176 L204.012928,336.176 C204.116928,338.516 205.260928,339.582 207.314928,339.582 C208.796928,339.582 209.992928,338.672 210.226928,337.84 L213.476928,337.84 C212.436928,341.012 210.226928,342.364 207.184928,342.364 C202.946928,342.364 200.320928,339.452 200.320928,335.292 C200.320928,331.262 203.102928,328.194 207.184928,328.194 C211.760928,328.194 213.970928,332.042 213.710928,336.176 Z M204.012928,333.836 L210.018928,333.836 C209.680928,331.964 208.874928,330.976 207.080928,330.976 C204.740928,330.976 204.064928,332.796 204.012928,333.836 Z M224.298499,336.8 L224.298499,335.422 C223.674499,335.968 222.374499,335.994 221.230499,336.202 C220.086499,336.436 219.046499,336.826 219.046499,338.178 C219.046499,339.556 220.112499,339.894 221.308499,339.894 C224.194499,339.894 224.298499,337.606 224.298499,336.8 Z M219.462499,332.692 L215.770499,332.692 C215.978499,329.234 219.072499,328.194 222.088499,328.194 C224.766499,328.194 227.990499,328.792 227.990499,332.016 L227.990499,339.01 C227.990499,340.232 228.120499,341.454 228.458499,342 L224.714499,342 C224.584499,341.584 224.480499,341.142 224.454499,340.7 C223.284499,341.922 221.568499,342.364 219.930499,342.364 C217.382499,342.364 215.354499,341.09 215.354499,338.334 C215.354499,335.292 217.642499,334.564 219.930499,334.252 C222.192499,333.914 224.298499,333.992 224.298499,332.484 C224.298499,330.898 223.206499,330.664 221.906499,330.664 C220.502499,330.664 219.592499,331.236 219.462499,332.692 Z M230.986071,342 L230.986071,323.436 L234.678071,323.436 L234.678071,342 L230.986071,342 Z M236.971642,337.632 L240.481642,337.632 C240.507642,339.244 241.859642,339.894 243.315642,339.894 C244.381642,339.894 245.733642,339.478 245.733642,338.178 C245.733642,337.06 244.199642,336.67 241.547642,336.098 C239.415642,335.63 237.283642,334.876 237.283642,332.51 C237.283642,329.078 240.247642,328.194 243.133642,328.194 C246.071642,328.194 248.775642,329.182 249.061642,332.484 L245.551642,332.484 C245.447642,331.054 244.355642,330.664 243.029642,330.664 C242.197642,330.664 240.975642,330.82 240.975642,331.912 C240.975642,333.238 243.055642,333.42 245.161642,333.914 C247.319642,334.408 249.425642,335.188 249.425642,337.684 C249.425642,341.22 246.357642,342.364 243.289642,342.364 C240.169642,342.364 237.127642,341.194 236.971642,337.632 Z M255.749213,323.436 L255.749213,328.428 L254.735213,336.436 L252.889213,336.436 L251.901213,328.428 L251.901213,323.436 L255.749213,323.436 Z M251.797213,342 L251.797213,337.996 L255.879213,337.996 L255.879213,342 L251.797213,342 Z" id="Hugesavingsonoutdoorsteals!" fill="#FFFFFF" fill-rule="nonzero"></path>
            </g>
        </g>
    </g>
</svg>