<svg x="0px" y="0px" width="77px" height="14px" viewBox="0 0 77 14" xmlns="http://www.w3.org/2000/svg">
	<path fill="#F39019" d="M14.77,5.476c0,0.118-0.088,0.266-0.234,0.414l-3.038,2.987l0.708,4.23c0,0.029,0,0.089,0,0.148
		c0,0.118-0.029,0.235-0.089,0.296C12.057,13.64,11.998,13.7,11.88,13.7s-0.235-0.06-0.354-0.118l-3.774-1.982l-3.775,1.982
		C3.86,13.64,3.742,13.7,3.624,13.7c-0.118,0-0.206-0.06-0.266-0.147c-0.059-0.061-0.088-0.178-0.088-0.296c0-0.03,0-0.09,0.03-0.148
		l0.708-4.23L0.94,5.89C0.823,5.712,0.733,5.594,0.733,5.476c0-0.207,0.177-0.355,0.472-0.385L5.451,4.47l1.888-3.846
		c0.118-0.237,0.236-0.355,0.413-0.355s0.295,0.118,0.413,0.355l1.887,3.846l4.246,0.621C14.592,5.121,14.769,5.269,14.77,5.476
		L14.77,5.476z"/>
	<path fill="#F39019" d="M30.169,5.476c0,0.118-0.088,0.266-0.234,0.414l-3.038,2.987l0.708,4.23c0,0.029,0,0.089,0,0.148
		c0,0.118-0.029,0.235-0.088,0.296c-0.06,0.088-0.118,0.147-0.236,0.147s-0.235-0.06-0.354-0.118l-3.774-1.982l-3.775,1.982
		C19.26,13.64,19.142,13.7,19.024,13.7c-0.118,0-0.207-0.06-0.266-0.147c-0.059-0.061-0.088-0.178-0.088-0.296
		c0-0.03,0-0.09,0.03-0.148l0.708-4.23L16.34,5.89c-0.118-0.178-0.207-0.296-0.207-0.414c0-0.207,0.177-0.355,0.472-0.385
		l4.246-0.621l1.887-3.846c0.118-0.237,0.236-0.355,0.413-0.355c0.177,0,0.295,0.118,0.413,0.355l1.887,3.846l4.246,0.621
		C29.992,5.121,30.169,5.269,30.169,5.476L30.169,5.476z"/>
	<path fill="#F39019" d="M45.569,5.476c0,0.118-0.088,0.266-0.234,0.414l-3.038,2.987l0.708,4.23c0,0.029,0,0.089,0,0.148
		c0,0.118-0.03,0.235-0.089,0.296c-0.06,0.088-0.118,0.147-0.236,0.147s-0.235-0.06-0.354-0.118l-3.774-1.982l-3.775,1.982
		C34.66,13.64,34.542,13.7,34.424,13.7s-0.207-0.06-0.266-0.147c-0.059-0.061-0.088-0.178-0.088-0.296c0-0.03,0-0.09,0.03-0.148
		l0.708-4.23L31.74,5.89c-0.118-0.178-0.207-0.296-0.207-0.414c0-0.207,0.177-0.355,0.472-0.385l4.246-0.621l1.887-3.846
		c0.118-0.237,0.236-0.355,0.413-0.355s0.294,0.118,0.413,0.355l1.887,3.846l4.246,0.621C45.393,5.121,45.568,5.269,45.569,5.476
		L45.569,5.476z"/>
	<path fill="#F39019" d="M60.97,5.476c0,0.118-0.089,0.266-0.235,0.414l-3.037,2.987l0.707,4.23c0,0.029,0,0.089,0,0.148
		c0,0.118-0.029,0.235-0.088,0.296C58.256,13.64,58.197,13.7,58.08,13.7c-0.118,0-0.236-0.06-0.354-0.118l-3.774-1.982l-3.774,1.982
		c-0.117,0.059-0.236,0.118-0.354,0.118c-0.119,0-0.207-0.06-0.266-0.147c-0.06-0.061-0.09-0.178-0.09-0.296
		c0-0.03,0-0.09,0.03-0.148l0.708-4.23L47.141,5.89c-0.118-0.178-0.207-0.296-0.207-0.414c0-0.207,0.178-0.355,0.473-0.385
		l4.245-0.621l1.888-3.846c0.117-0.237,0.236-0.355,0.412-0.355c0.178,0,0.295,0.118,0.413,0.355l1.888,3.846l4.246,0.621
		C60.792,5.121,60.969,5.269,60.97,5.476L60.97,5.476z"/>
	<path fill="#F39019" d="M76.369,5.476c0,0.118-0.088,0.266-0.234,0.414l-3.037,2.987l0.707,4.23c0,0.029,0,0.089,0,0.148
		c0,0.118-0.029,0.235-0.089,0.296c-0.06,0.088-0.118,0.147-0.235,0.147c-0.119,0-0.236-0.06-0.354-0.118l-3.774-1.982l-3.774,1.982
		c-0.117,0.059-0.236,0.118-0.354,0.118c-0.119,0-0.207-0.06-0.267-0.147c-0.059-0.061-0.089-0.178-0.089-0.296
		c0-0.03,0-0.09,0.03-0.148l0.708-4.23L62.541,5.89c-0.119-0.178-0.207-0.296-0.207-0.414c0-0.207,0.178-0.355,0.472-0.385
		l4.245-0.621l1.889-3.846c0.117-0.237,0.235-0.355,0.412-0.355s0.295,0.118,0.412,0.355l1.889,3.846l4.245,0.621
		C76.191,5.121,76.369,5.269,76.369,5.476L76.369,5.476z"/>
</svg>
